<svg width="1920" height="6461" viewBox="0 0 1920 6461" fill="none" xmlns="http://www.w3.org/2000/svg">
<path d="M-238 -160.5C-286.974 -17.3 -38.5 -81 169 94.5C292.082 198.601 366.398 444.546 424 593.5C537.5 887 688.923 936.208 818.5 966C999 1007.5 1144.6 1000.49 1340.5 1074.5C1566.7 1159.96 1598 1239 1646.5 1315C1695 1391 1777.7 1741.78 1485 1907.5C1059.67 2148.31 740.777 1915.78 409.5 2190.5C163.5 2394.5 121.5 2847 305 3146C442.123 3369.43 886.452 3303 1149 3303C1370.5 3303 1485 3291 1635 3397C1806.07 3517.89 1832.5 3736 1769.5 3902C1606.19 4332.3 1317.63 4240.85 926.443 4578.11C550.083 4902.59 492.386 5251.74 523.918 5503.28C547.04 5687.74 607.777 5998.85 829.837 6193L1146 6482" stroke="url(#paint0_radial_80_116)" stroke-width="3"/>
<path d="M2283.77 2636.23C2235.58 2848.69 1983.53 3122.52 1534.63 2799.31C1475.44 2743.55 1432.92 2635.65 1480.75 2539.6C1540.54 2419.54 1658.08 2315.83 1712.65 2262.91C1767.21 2209.99 1974.18 2072.87 2130.02 2092.49C2285.85 2112.12 2368.48 2158.43 2366.3 2314.62C2364.16 2467.9 2325.06 2454.22 2283.77 2636.23Z" fill="url(#paint1_linear_80_116)"/>
<path d="M1461.41 5522.78C1453.39 5423.02 1430.94 5024 2089.36 5050.55C2185.02 5066 2299.33 5138.66 2316.91 5254.28C2338.88 5398.81 2293.09 5562.82 2275.05 5643.29C2257.01 5723.76 2104.78 6035.14 1938.44 6109.95C1772.1 6184.77 1736.16 6186.28 1596 6072.31C1455.84 5958.33 1469.44 5622.54 1461.41 5522.78Z" fill="url(#paint2_linear_80_116)"/>
<path d="M-436.891 4025.58C-609.18 3704.53 -851.303 3499.32 -365.485 3226.53C-206.437 3161.36 35.1733 3238.49 102.343 3374.44C186.305 3544.38 164.953 3651.89 188.993 3757.87C213.033 3863.86 306.572 4075.18 216.716 4229.87C126.861 4384.56 -3.633 4608.4 -162 4520.5C-320.367 4432.6 -254.821 4364.86 -436.891 4025.58Z" fill="url(#paint3_linear_80_116)"/>
<path d="M1340.26 242.479C1301.44 135.804 1153.16 -293.672 1638.23 -454.634C1712.53 -465.36 1819.27 -418.95 1870.25 -297.7C1933.96 -146.138 1955.12 46.2707 1968.7 139.394C1982.28 232.517 1979.91 353.281 1884.34 483.012C1788.78 612.744 1715.55 636.452 1576.45 552.367C1437.34 468.282 1379.08 349.154 1340.26 242.479Z" fill="url(#paint4_linear_80_116)"/>
<path d="M-434.552 768.906C-486.381 672.462 -685.991 282.881 -148.639 49.3128C-65.2982 26.9499 58.9874 54.3574 125.657 162.868C208.994 298.507 247.154 480.375 269.407 567.855C291.66 655.336 312.006 1026.4 213.379 1166.81C114.752 1307.22 86.7637 1322.94 -76.9493 1264.49C-240.662 1206.04 -382.723 865.35 -434.552 768.906Z" fill="url(#paint5_linear_80_116)"/>
<path d="M-50.2043 18.9301C36.4015 37.8245 114.41 79.9946 160.089 173.191" stroke="#E7D6B7"/>
<path d="M179.958 214.315C236.377 341.003 273.977 483.42 285.725 538.793" stroke="#CDB991"/>
<path d="M291.078 569.714C311.058 706.599 304.271 689.449 306.774 746.677" stroke="#E2CDA4"/>
<g clip-path="url(#clip0_80_116)">
<path d="M1469.31 3724.83C1474.52 3724.08 1478.12 3719.25 1477.37 3714.04C1476.61 3708.84 1471.78 3705.23 1466.57 3705.99C1461.37 3706.74 1457.76 3711.57 1458.52 3716.78C1459.27 3721.98 1464.11 3725.59 1469.31 3724.83Z" fill="#D6CDF9" fill-opacity="0.58"/>
<path d="M1526.57 3716.52C1531.78 3715.76 1535.38 3710.93 1534.63 3705.72C1533.87 3700.52 1529.04 3696.91 1523.83 3697.67C1518.63 3698.42 1515.02 3703.25 1515.78 3708.46C1516.53 3713.67 1521.37 3717.27 1526.57 3716.52Z" fill="#D6CDF9" fill-opacity="0.58"/>
<path d="M1535.83 3601.27C1535.37 3600.85 1534.82 3600.53 1534.23 3600.34C1533.63 3600.15 1533 3600.1 1532.38 3600.19L1445.17 3612.86L1449.11 3620.84L1528.11 3609.36L1524.23 3661.25L1461.4 3670.38L1433.45 3612.55C1433.15 3611.94 1432.71 3611.41 1432.16 3611C1431.6 3610.6 1430.96 3610.33 1430.29 3610.23L1412.35 3607.45C1411.8 3607.36 1411.23 3607.39 1410.69 3607.52C1410.15 3607.65 1409.64 3607.89 1409.19 3608.22C1408.28 3608.88 1407.67 3609.88 1407.5 3611C1407.32 3612.11 1407.6 3613.25 1408.27 3614.16C1408.93 3615.07 1409.93 3615.68 1411.05 3615.85L1426.75 3618.27L1454.8 3676.22L1448.75 3682.83L1448.28 3683.45C1446.87 3685.65 1446.27 3688.28 1446.58 3690.89C1446.9 3693.49 1448.11 3695.9 1450.01 3697.7C1451.36 3698.92 1452.97 3699.81 1454.72 3700.3C1456.47 3700.79 1458.31 3700.86 1460.09 3700.51L1530 3690.35C1531.11 3690.19 1532.11 3689.6 1532.78 3688.7C1533.45 3687.8 1533.74 3686.67 1533.58 3685.56C1533.42 3684.45 1532.82 3683.44 1531.92 3682.77C1531.02 3682.1 1529.89 3681.82 1528.78 3681.98L1458.2 3692.23C1457.72 3692.29 1457.23 3692.21 1456.78 3692.02C1456.33 3691.83 1455.94 3691.53 1455.64 3691.14C1455.34 3690.75 1455.15 3690.3 1455.08 3689.81C1455.01 3689.33 1455.07 3688.84 1455.25 3688.38L1464.12 3678.54L1528.8 3669.14C1529.77 3669.03 1530.67 3668.58 1531.35 3667.87C1532.02 3667.16 1532.44 3666.24 1532.51 3665.27L1537.27 3604.7C1537.31 3604.05 1537.2 3603.41 1536.95 3602.82C1536.7 3602.22 1536.32 3601.69 1535.83 3601.27Z" fill="#D6CDF9" fill-opacity="0.58"/>
</g>
<g clip-path="url(#clip1_80_116)">
<path d="M1767.02 3433.15L1753.38 3473.03C1752.81 3474.7 1752.93 3476.56 1753.72 3478.16L1764.37 3499.89C1766.01 3503.22 1770.07 3504.61 1773.4 3502.98L1795.13 3492.33C1796.74 3491.54 1797.97 3490.15 1798.53 3488.44L1812.17 3448.57C1813.37 3445.04 1811.49 3441.2 1807.96 3439.99L1775.58 3428.92C1772.06 3427.71 1768.24 3429.58 1767.02 3433.15ZM1778.84 3483.4C1780.07 3485.91 1779.04 3488.94 1776.52 3490.17C1774.01 3491.41 1770.98 3490.37 1769.75 3487.86C1768.52 3485.34 1769.55 3482.32 1772.07 3481.08C1774.58 3479.85 1777.61 3480.88 1778.84 3483.4Z" fill="#E5E5E5"/>
</g>
<g clip-path="url(#clip2_80_116)">
<path d="M1634.04 3538.71C1633.84 3536.92 1633.28 3535.18 1632.38 3533.61C1631.48 3532.04 1630.27 3530.67 1628.83 3529.59C1627.5 3528.49 1626.12 3527.45 1624.7 3526.5L1631.5 3510.54C1634.45 3512.18 1636.91 3514.58 1638.64 3517.49C1638.75 3517.72 1638.9 3517.92 1639.09 3518.09C1639.27 3518.26 1639.49 3518.39 1639.73 3518.47C1639.96 3518.56 1640.22 3518.59 1640.47 3518.58C1640.72 3518.57 1640.97 3518.51 1641.19 3518.4C1641.42 3518.29 1641.62 3518.14 1641.79 3517.95C1641.96 3517.77 1642.09 3517.55 1642.18 3517.31C1642.26 3517.07 1642.3 3516.82 1642.29 3516.57C1642.27 3516.32 1642.21 3516.07 1642.1 3515.85C1639.99 3512.08 1636.83 3509 1633.01 3506.98L1635.34 3501.53C1635.53 3501.06 1635.54 3500.53 1635.35 3500.06C1635.16 3499.59 1634.79 3499.21 1634.33 3499.02C1633.86 3498.82 1633.33 3498.81 1632.86 3499C1632.39 3499.19 1632.02 3499.56 1631.82 3500.03L1629.57 3505.31C1621.75 3502.18 1615.83 3504.21 1613.11 3506.98C1611.33 3508.76 1610.23 3511.1 1610.02 3513.6C1609.8 3516.11 1610.47 3518.61 1611.92 3520.66C1614.04 3523.62 1616.77 3526.09 1619.94 3527.9L1613.07 3544.02C1608.57 3541.83 1604.89 3538.27 1602.56 3533.84C1602.48 3533.59 1602.35 3533.35 1602.17 3533.14C1602 3532.94 1601.78 3532.78 1601.53 3532.67C1601.29 3532.55 1601.02 3532.49 1600.76 3532.49C1600.49 3532.48 1600.22 3532.54 1599.97 3532.64C1599.73 3532.75 1599.5 3532.91 1599.32 3533.11C1599.14 3533.31 1599 3533.54 1598.92 3533.8C1598.83 3534.05 1598.8 3534.32 1598.83 3534.59C1598.85 3534.86 1598.94 3535.12 1599.07 3535.35C1601.77 3540.69 1606.17 3544.97 1611.57 3547.54L1609.32 3552.82C1609.12 3553.28 1609.12 3553.81 1609.31 3554.28C1609.49 3554.75 1609.86 3555.13 1610.33 3555.33C1610.8 3555.53 1611.32 3555.53 1611.79 3555.34C1612.26 3555.15 1612.64 3554.78 1612.84 3554.32L1615.09 3549.04C1620.19 3550.82 1626.59 3551.67 1631.5 3546.14C1632.4 3545.13 1633.08 3543.95 1633.52 3542.68C1633.95 3541.4 1634.13 3540.06 1634.04 3538.71ZM1615.17 3518.55C1614.21 3517.24 1613.75 3515.62 1613.87 3514C1614 3512.38 1614.69 3510.86 1615.84 3509.71C1616.26 3509.26 1620.11 3505.68 1628.07 3508.82L1621.47 3524.31C1618.99 3522.85 1616.84 3520.89 1615.17 3518.55ZM1628.67 3543.51C1625.8 3546.74 1622.21 3547.35 1616.62 3545.45L1623.17 3530.09C1624.19 3530.81 1625.23 3531.59 1626.3 3532.48C1627.35 3533.24 1628.24 3534.21 1628.9 3535.32C1629.57 3536.44 1630 3537.67 1630.18 3538.96C1630.29 3540.61 1629.75 3542.25 1628.67 3543.51Z" fill="#CDB991" fill-opacity="0.5"/>
</g>
<path d="M1640.75 3930.08C1628.9 3919.75 1621.56 3914.36 1618.92 3914.07C1616.84 3913.85 1613.87 3914.98 1608.35 3917.17C1604.21 3918.82 1599.07 3920.86 1596.47 3921.04L1594.01 3921.2L1593.32 3923.78C1593.26 3923.97 1590.64 3933.03 1583.19 3936.75C1575.68 3940.49 1567.75 3936.62 1567.67 3936.58L1565.46 3935.48L1563.73 3937.38C1561.89 3939.43 1557.1 3942.34 1553.26 3944.68C1548.12 3947.81 1545.38 3949.53 1544.16 3951.4C1542.61 3953.77 1541.43 3963.42 1540.63 3980.07L1540.55 3981.85L1541.76 3983.05C1553.09 3994.31 1567.51 3990.82 1568.12 3990.67L1570.03 3990.19L1589.05 4041.87L1589.83 4043.99L1591.92 4044.2C1611.74 4046.22 1638.77 4032.73 1650.49 4014.96L1651.73 4013.09L1650.8 4011.04L1628.21 3961.14L1629.8 3959.88C1630.31 3959.47 1642.2 3949.82 1642.03 3932.99L1642.02 3931.19L1640.75 3930.08ZM1634.4 3939.63C1632.82 3946.4 1629.5 3951.37 1624.51 3954.44L1619.77 3951.09L1647.68 4012.75C1636.3 4030 1611.53 4042.37 1592.27 4040.41L1568.77 3976.55L1567.97 3982.53C1562.59 3984.63 1557.01 3984.11 1551.37 3980.95C1548.81 3979.5 1546.46 3977.67 1544.37 3975.52L1544.35 3975.79C1544.77 3968.74 1545.72 3955.52 1546.98 3953.58C1548.52 3951.22 1559.16 3946 1564.43 3941.65C1566.7 3942.58 1569.06 3943.26 1571.46 3943.68C1573.69 3944.07 1575.95 3944.17 1578.21 3943.99C1580.93 3943.75 1583.48 3943.05 1585.79 3941.89L1585.86 3941.86C1588.65 3940.45 1591.11 3938.37 1593.17 3935.69C1595.45 3932.72 1597.25 3928.97 1598.56 3924.53C1604.97 3923.14 1615.87 3917.57 1618.54 3917.86C1620.69 3918.09 1630.25 3925.98 1635.34 3930.3C1635.42 3933.43 1635.1 3936.57 1634.4 3939.63Z" fill="#F7E6C6"/>
<g clip-path="url(#clip3_80_116)">
<path d="M1609.13 3816.98C1609.7 3816.75 1610.34 3816.75 1610.9 3816.99C1611.47 3817.23 1611.91 3817.68 1612.15 3818.25L1617.38 3831.1L1630.23 3825.86C1630.8 3825.63 1631.44 3825.63 1632 3825.87C1632.57 3826.11 1633.01 3826.56 1633.25 3827.13C1633.48 3827.7 1633.47 3828.33 1633.24 3828.9C1633 3829.46 1632.55 3829.91 1631.98 3830.14L1619.13 3835.38L1624.37 3848.23C1624.6 3848.8 1624.6 3849.43 1624.36 3850C1624.12 3850.57 1623.67 3851.01 1623.1 3851.24C1622.53 3851.48 1621.89 3851.47 1621.33 3851.23C1620.76 3851 1620.32 3850.54 1620.08 3849.98L1614.85 3837.13L1602 3842.37C1601.43 3842.6 1600.79 3842.59 1600.23 3842.36C1599.66 3842.12 1599.22 3841.67 1598.98 3841.1C1598.75 3840.53 1598.76 3839.89 1598.99 3839.33C1599.23 3838.76 1599.68 3838.31 1600.25 3838.08L1613.1 3832.85L1607.86 3820C1607.63 3819.43 1607.63 3818.79 1607.87 3818.23C1608.11 3817.66 1608.56 3817.21 1609.13 3816.98V3816.98Z" fill="#9BE1A6" fill-opacity="0.42"/>
</g>
<g clip-path="url(#clip4_80_116)">
<path d="M1632.6 3690.93C1631.94 3691.35 1631.47 3692.02 1631.28 3692.78C1631.1 3693.55 1631.22 3694.35 1631.62 3695.03C1632.01 3695.71 1632.66 3696.21 1633.41 3696.43C1634.17 3696.65 1634.98 3696.56 1635.68 3696.2C1648.01 3689.02 1659.68 3696.24 1666.33 3702.18L1662.84 3705.78C1661.67 3706.99 1660.96 3709.32 1661.26 3710.97L1664.4 3726.76C1664.83 3728.68 1665.78 3730.45 1667.13 3731.87L1708.84 3772.09C1709.82 3773.02 1711.12 3773.53 1712.47 3773.51C1713.82 3773.49 1715.1 3772.93 1716.04 3771.96L1742.2 3744.91C1744.15 3742.88 1743.39 3740.4 1741.37 3738.45L1699.65 3698.23C1698.45 3697.08 1696.1 3695.93 1694.44 3695.69L1677.88 3693.77C1676.22 3693.53 1673.91 3694.33 1672.74 3695.54L1670.62 3697.73C1661.62 3689.77 1647.06 3682.52 1632.6 3690.93ZM1683.2 3703.57C1683.97 3704.31 1684.58 3705.2 1685.01 3706.17C1685.43 3707.15 1685.66 3708.21 1685.68 3709.27C1685.7 3710.34 1685.5 3711.4 1685.11 3712.39C1684.72 3713.38 1684.14 3714.29 1683.4 3715.06C1681.9 3716.61 1679.84 3717.5 1677.68 3717.54C1675.52 3717.58 1673.44 3716.76 1671.88 3715.26C1670.67 3714.09 1669.85 3712.56 1669.54 3710.9C1669.23 3709.24 1669.45 3707.52 1670.17 3705.99C1671.24 3707.18 1671.9 3708.01 1672.01 3708.17C1672.42 3708.73 1673.01 3709.13 1673.68 3709.31C1674.35 3709.49 1675.06 3709.43 1675.69 3709.15C1676.33 3708.88 1676.85 3708.39 1677.17 3707.78C1677.5 3707.16 1677.6 3706.46 1677.47 3705.78C1677.39 3705.35 1677.2 3704.93 1676.93 3704.56C1676.29 3703.69 1675.55 3702.76 1674.7 3701.81C1676.14 3701.27 1677.7 3701.15 1679.2 3701.46C1680.71 3701.78 1682.09 3702.51 1683.2 3703.57Z" fill="#9A4176" fill-opacity="0.21"/>
</g>
<g clip-path="url(#clip5_80_116)">
<path d="M364.263 273.978C369.311 272.498 372.202 267.206 370.722 262.159C369.241 257.112 363.95 254.221 358.903 255.701C353.855 257.182 350.964 262.473 352.444 267.52C353.925 272.567 359.216 275.459 364.263 273.978Z" fill="#D6CDF9" fill-opacity="0.58"/>
<path d="M419.786 257.693C424.833 256.213 427.724 250.921 426.244 245.874C424.763 240.827 419.472 237.935 414.425 239.416C409.377 240.896 406.486 246.188 407.966 251.235C409.447 256.282 414.738 259.173 419.786 257.693Z" fill="#D6CDF9" fill-opacity="0.58"/>
<path d="M412.755 142.289C412.24 141.934 411.653 141.698 411.036 141.597C410.42 141.495 409.788 141.532 409.187 141.704L324.624 166.507L329.647 173.856L406.249 151.388L409.7 203.308L348.776 221.178L312.976 167.851C312.593 167.286 312.078 166.823 311.476 166.5C310.875 166.177 310.204 166.004 309.521 165.997L291.368 165.764C290.809 165.757 290.255 165.86 289.737 166.067C289.218 166.274 288.746 166.581 288.346 166.97C287.539 167.757 287.077 168.833 287.063 169.96C287.048 171.087 287.482 172.174 288.269 172.982C289.056 173.789 290.131 174.251 291.259 174.265L307.15 174.456L343.067 227.881L338.003 235.277L337.629 235.96C336.539 238.342 336.313 241.03 336.991 243.561C337.669 246.091 339.208 248.306 341.343 249.824C342.845 250.846 344.565 251.502 346.366 251.739C348.167 251.977 349.998 251.79 351.714 251.193L419.502 231.31C420.579 230.994 421.486 230.263 422.025 229.278C422.563 228.293 422.688 227.134 422.372 226.057C422.056 224.98 421.325 224.072 420.34 223.534C419.355 222.996 418.196 222.871 417.119 223.187L348.681 243.261C348.209 243.382 347.713 243.379 347.242 243.253C346.771 243.127 346.34 242.881 345.992 242.54C345.644 242.199 345.389 241.773 345.253 241.305C345.117 240.837 345.104 240.341 345.215 239.866L352.621 228.872L415.332 210.478C416.278 210.225 417.107 209.653 417.678 208.858C418.249 208.063 418.527 207.095 418.464 206.119L414.661 145.48C414.607 144.838 414.407 144.217 414.077 143.664C413.747 143.111 413.294 142.641 412.755 142.289Z" fill="#D6CDF9" fill-opacity="0.58"/>
</g>
<path d="M658.491 809.259L688.292 779.457C689.541 778.209 690.25 776.487 690.25 774.699L690.25 750.5C690.25 746.787 687.212 743.75 683.5 743.75L659.301 743.75C657.512 743.75 655.791 744.459 654.542 745.741L624.741 775.542C622.109 778.175 622.109 782.461 624.741 785.094L648.94 809.292C651.572 811.925 655.825 811.925 658.491 809.259ZM670 758.937C670 756.136 672.261 753.875 675.062 753.875C677.864 753.875 680.125 756.136 680.125 758.937C680.125 761.739 677.864 764 675.062 764C672.261 764 670 761.739 670 758.937Z" fill="#E5E5E5"/>
<path d="M545.391 311.95C544.941 310.198 544.136 308.558 543.027 307.13C541.918 305.702 540.527 304.516 538.942 303.647C537.478 302.743 535.968 301.915 534.418 301.168L538.908 284.409C542.061 285.628 544.838 287.656 546.957 290.289C547.096 290.499 547.274 290.68 547.483 290.821C547.692 290.962 547.926 291.06 548.173 291.111C548.419 291.161 548.673 291.163 548.921 291.115C549.168 291.067 549.403 290.971 549.613 290.832C549.824 290.694 550.004 290.515 550.145 290.306C550.286 290.098 550.385 289.863 550.435 289.617C550.486 289.37 550.487 289.116 550.439 288.869C550.392 288.621 550.296 288.386 550.157 288.176C547.533 284.743 543.974 282.14 539.908 280.677L541.443 274.949C541.574 274.459 541.505 273.937 541.252 273.498C540.998 273.059 540.58 272.738 540.09 272.607C539.6 272.475 539.078 272.544 538.639 272.798C538.199 273.051 537.879 273.469 537.748 273.959L536.262 279.502C528.083 277.509 522.509 280.352 520.206 283.478C518.692 285.482 517.935 287.958 518.071 290.466C518.208 292.975 519.227 295.354 520.95 297.183C523.464 299.82 526.519 301.881 529.906 303.226L525.371 320.15C520.612 318.615 516.466 315.604 513.535 311.553C513.421 311.309 513.257 311.092 513.053 310.916C512.85 310.74 512.611 310.609 512.354 310.531C512.096 310.454 511.825 310.431 511.558 310.465C511.291 310.5 511.034 310.59 510.805 310.73C510.575 310.871 510.377 311.058 510.225 311.28C510.073 311.502 509.969 311.753 509.92 312.018C509.872 312.283 509.88 312.555 509.944 312.816C510.007 313.078 510.126 313.323 510.291 313.535C513.713 318.44 518.67 322.068 524.38 323.846L522.895 329.389C522.764 329.879 522.833 330.401 523.086 330.84C523.34 331.28 523.758 331.6 524.248 331.731C524.738 331.863 525.26 331.794 525.699 331.54C526.139 331.287 526.459 330.869 526.591 330.379L528.076 324.836C533.38 325.881 539.831 325.827 543.92 319.655C544.662 318.532 545.174 317.272 545.426 315.95C545.679 314.627 545.667 313.268 545.391 311.95ZM523.87 294.638C522.736 293.473 522.054 291.942 521.948 290.32C521.842 288.698 522.318 287.092 523.29 285.789C523.642 285.289 526.954 281.206 535.272 283.197L530.916 299.457C528.254 298.364 525.853 296.722 523.87 294.638ZM540.746 317.458C538.357 321.056 534.89 322.167 529.086 321.067L533.408 304.937C534.521 305.512 535.661 306.135 536.851 306.869C537.998 307.474 539.01 308.306 539.826 309.314C540.642 310.323 541.244 311.487 541.596 312.735C541.937 314.36 541.633 316.054 540.746 317.458Z" fill="#CDB991" fill-opacity="0.5"/>
<g clip-path="url(#clip6_80_116)">
<path d="M415.598 394.928C414.937 395.355 414.467 396.02 414.285 396.784C414.102 397.549 414.222 398.355 414.618 399.034C415.014 399.713 415.657 400.213 416.413 400.43C417.169 400.647 417.979 400.564 418.676 400.199C431.015 393.019 442.678 400.238 449.328 406.177L445.84 409.778C444.671 410.988 443.958 413.324 444.258 414.973L447.401 430.763C447.835 432.682 448.779 434.448 450.135 435.875L491.845 476.09C492.818 477.025 494.122 477.537 495.471 477.512C496.82 477.488 498.104 476.93 499.043 475.961L525.204 448.91C527.151 446.885 526.386 444.405 524.37 442.451L482.655 402.236C481.447 401.082 479.104 399.933 477.437 399.691L460.884 397.776C459.222 397.534 456.912 398.328 455.743 399.538L453.618 401.731C444.624 393.768 430.059 386.517 415.598 394.928ZM466.201 407.572C466.968 408.313 467.582 409.198 468.007 410.176C468.432 411.155 468.661 412.207 468.679 413.274C468.697 414.341 468.505 415.4 468.114 416.393C467.722 417.385 467.139 418.291 466.398 419.058C464.897 420.61 462.842 421.504 460.683 421.543C458.524 421.582 456.438 420.763 454.883 419.265C453.666 418.091 452.846 416.565 452.538 414.902C452.23 413.239 452.45 411.521 453.166 409.989C454.241 411.179 454.898 412.014 455.006 412.173C455.418 412.73 456.008 413.131 456.678 413.309C457.348 413.488 458.059 413.434 458.694 413.155C459.329 412.877 459.851 412.391 460.174 411.777C460.497 411.163 460.602 410.458 460.471 409.777C460.389 409.351 460.205 408.934 459.931 408.56C459.288 407.687 458.547 406.761 457.698 405.81C459.138 405.273 460.699 405.153 462.204 405.465C463.708 405.777 465.093 406.507 466.201 407.572Z" fill="#9A4176" fill-opacity="0.21"/>
</g>
<path d="M598.719 639.531C594.141 628.094 590.94 621.715 589.206 620.574C587.833 619.677 585.352 619.405 580.718 618.965C577.249 618.636 572.934 618.226 571.052 617.42L569.278 616.661L567.876 618.211C567.77 618.324 562.712 623.709 556.182 623.646C549.61 623.582 545.455 618.05 545.414 617.993L544.265 616.435L542.378 617.145C540.364 617.915 535.988 618.24 532.471 618.5C527.769 618.851 525.245 619.074 523.728 619.942C521.798 621.049 517.531 627.356 511.039 638.687L510.341 639.904L510.756 641.169C514.647 653.065 525.954 655.782 526.434 655.892L527.935 656.236L522.768 699.077L522.556 700.837L523.938 701.73C537.052 710.209 560.717 710.437 575.237 702.224L576.767 701.359L576.85 699.598L578.895 656.726L580.452 656.413C580.949 656.312 592.695 653.817 598.582 642.015L599.212 640.76L598.719 639.531ZM590.887 643.927C587.366 648.087 583.274 650.368 578.7 650.727L576.592 646.703L574.065 699.681C559.965 707.657 538.275 707.449 525.537 699.214L531.922 646.272L529.232 650.154C524.729 649.707 521.025 647.348 518.213 643.132C516.948 641.206 515.955 639.093 515.263 636.849L515.154 637.032C517.967 632.257 523.341 623.378 524.916 622.474C526.833 621.376 536.116 621.53 541.346 620.375C542.599 621.832 543.999 623.147 545.526 624.3C546.94 625.364 548.483 626.244 550.125 626.922C552.11 627.727 554.137 628.144 556.163 628.164L556.223 628.164C558.675 628.176 561.132 627.607 563.528 626.468C566.173 625.212 568.772 623.236 571.27 620.605C576.233 621.921 585.829 621.924 587.59 623.078C589.004 624.009 592.857 632.921 594.87 637.754C593.806 639.966 592.466 642.042 590.887 643.927Z" fill="#F7E6C6"/>
<g clip-path="url(#clip7_80_116)">
<path d="M396.045 350.95C396.613 351.18 397.067 351.627 397.306 352.192C397.545 352.757 397.55 353.393 397.319 353.962L392.107 366.82L404.965 372.033C405.534 372.263 405.987 372.71 406.226 373.275C406.465 373.84 406.47 374.476 406.24 375.045C406.009 375.613 405.563 376.067 404.998 376.306C404.433 376.545 403.796 376.55 403.228 376.319L390.369 371.107L385.157 383.965C384.926 384.534 384.48 384.987 383.915 385.226C383.35 385.465 382.713 385.47 382.145 385.24C381.577 385.009 381.123 384.563 380.884 383.998C380.645 383.433 380.64 382.796 380.871 382.228L386.083 369.369L373.224 364.157C372.656 363.926 372.202 363.48 371.963 362.915C371.724 362.35 371.72 361.713 371.95 361.145C372.18 360.577 372.627 360.123 373.192 359.884C373.757 359.645 374.393 359.64 374.962 359.871L387.82 365.083L393.033 352.224C393.263 351.656 393.71 351.202 394.275 350.963C394.84 350.724 395.476 350.719 396.045 350.95V350.95Z" fill="#9BE1A6" fill-opacity="0.42"/>
</g>
<g clip-path="url(#clip8_80_116)">
<path d="M581.825 5387.51L615.519 5362.2C616.931 5361.14 617.875 5359.53 618.126 5357.76L621.528 5333.8C622.05 5330.13 619.469 5326.69 615.794 5326.17L591.835 5322.77C590.064 5322.52 588.26 5322.98 586.844 5324.07L553.149 5349.39C550.173 5351.63 549.571 5355.87 551.807 5358.85L572.364 5386.21C574.6 5389.18 578.81 5389.78 581.825 5387.51ZM600.293 5339.31C600.687 5336.54 603.243 5334.62 606.017 5335.01C608.79 5335.4 610.711 5337.96 610.317 5340.73C609.924 5343.51 607.367 5345.43 604.594 5345.03C601.82 5344.64 599.899 5342.08 600.293 5339.31Z" fill="#E5E5E5"/>
</g>
<g clip-path="url(#clip9_80_116)">
<path d="M671.571 5126.71C671.372 5124.92 670.806 5123.18 669.909 5121.61C669.011 5120.04 667.801 5118.67 666.353 5117.59C665.031 5116.49 663.652 5115.46 662.223 5114.5L669.024 5098.54C671.975 5100.19 674.438 5102.58 676.166 5105.49C676.274 5105.72 676.426 5105.92 676.613 5106.09C676.799 5106.26 677.017 5106.39 677.255 5106.47C677.492 5106.56 677.743 5106.6 677.995 5106.58C678.246 5106.57 678.493 5106.51 678.72 5106.4C678.948 5106.29 679.152 5106.14 679.321 5105.95C679.49 5105.77 679.62 5105.55 679.705 5105.31C679.79 5105.08 679.827 5104.82 679.814 5104.57C679.802 5104.32 679.74 5104.07 679.632 5103.85C677.516 5100.08 674.359 5097 670.539 5094.98L672.863 5089.53C673.062 5089.06 673.068 5088.53 672.878 5088.06C672.689 5087.59 672.32 5087.22 671.854 5087.02C671.387 5086.82 670.86 5086.81 670.39 5087C669.919 5087.19 669.543 5087.56 669.344 5088.03L667.094 5093.31C659.277 5090.18 653.358 5092.21 650.639 5094.99C648.857 5096.76 647.761 5099.1 647.543 5101.6C647.325 5104.11 648 5106.61 649.449 5108.66C651.567 5111.62 654.302 5114.09 657.466 5115.9L650.597 5132.02C646.102 5129.83 642.42 5126.27 640.087 5121.84C640.009 5121.59 639.877 5121.35 639.7 5121.15C639.523 5120.94 639.306 5120.78 639.061 5120.67C638.817 5120.55 638.552 5120.49 638.283 5120.49C638.014 5120.49 637.747 5120.54 637.5 5120.65C637.253 5120.75 637.031 5120.91 636.849 5121.11C636.667 5121.31 636.529 5121.54 636.443 5121.8C636.358 5122.05 636.328 5122.32 636.354 5122.59C636.381 5122.86 636.463 5123.12 636.597 5123.35C639.296 5128.69 643.693 5132.98 649.097 5135.54L646.848 5140.82C646.649 5141.29 646.643 5141.81 646.833 5142.28C647.022 5142.75 647.391 5143.13 647.858 5143.33C648.324 5143.53 648.851 5143.53 649.321 5143.34C649.792 5143.15 650.168 5142.79 650.367 5142.32L652.617 5137.04C657.722 5138.82 664.116 5139.67 669.032 5134.14C669.924 5133.13 670.608 5131.95 671.044 5130.68C671.48 5129.41 671.659 5128.06 671.571 5126.71ZM652.697 5106.55C651.738 5105.24 651.279 5103.63 651.402 5102.01C651.524 5100.38 652.221 5098.86 653.367 5097.71C653.786 5097.26 657.639 5093.68 665.595 5096.83L658.996 5112.31C656.515 5110.85 654.368 5108.89 652.697 5106.55ZM666.199 5131.52C663.327 5134.74 659.739 5135.35 654.146 5133.45L660.693 5118.09C661.714 5118.81 662.756 5119.59 663.83 5120.48C664.881 5121.24 665.766 5122.21 666.432 5123.32C667.098 5124.44 667.531 5125.67 667.704 5126.96C667.813 5128.62 667.273 5130.25 666.199 5131.52Z" fill="#CDB991" fill-opacity="0.5"/>
</g>
<g clip-path="url(#clip10_80_116)">
<path d="M580.393 5189C581.151 5189.09 581.839 5189.49 582.305 5190.1C582.771 5190.7 582.977 5191.47 582.878 5192.23L580.631 5209.39L597.788 5211.63C598.546 5211.73 599.234 5212.13 599.7 5212.73C600.166 5213.34 600.372 5214.11 600.273 5214.87C600.173 5215.62 599.777 5216.31 599.17 5216.78C598.564 5217.24 597.797 5217.45 597.039 5217.35L579.882 5215.1L577.636 5232.26C577.537 5233.02 577.14 5233.71 576.534 5234.17C575.927 5234.64 575.161 5234.84 574.402 5234.75C573.644 5234.65 572.956 5234.25 572.49 5233.64C572.024 5233.04 571.818 5232.27 571.917 5231.51L574.164 5214.36L557.007 5212.11C556.249 5212.01 555.561 5211.61 555.095 5211.01C554.629 5210.4 554.423 5209.63 554.522 5208.88C554.621 5208.12 555.018 5207.43 555.624 5206.96C556.231 5206.5 556.998 5206.29 557.756 5206.39L574.912 5208.64L577.159 5191.48C577.258 5190.72 577.655 5190.03 578.261 5189.57C578.867 5189.1 579.634 5188.9 580.393 5189V5189Z" fill="#9BE1A6" fill-opacity="0.42"/>
</g>
<g clip-path="url(#clip11_80_116)">
<path d="M447.404 5177.32C451.068 5177.01 453.793 5173.8 453.49 5170.13C453.187 5166.47 449.971 5163.74 446.306 5164.05C442.642 5164.35 439.917 5167.57 440.22 5171.23C440.524 5174.89 443.74 5177.62 447.404 5177.32Z" fill="#9A4176" fill-opacity="0.21"/>
<path d="M493.846 5173.47C497.51 5173.17 500.235 5169.96 499.932 5166.29C499.629 5162.63 496.413 5159.9 492.749 5160.21C489.085 5160.51 486.36 5163.72 486.663 5167.39C486.966 5171.05 490.182 5173.78 493.846 5173.47Z" fill="#9A4176" fill-opacity="0.21"/>
<path d="M423.29 5088.48C423.077 5087.74 422.615 5087.09 421.982 5086.66C421.349 5086.22 420.585 5086.01 419.818 5086.08L406.549 5087.17L407.097 5093.81L417.646 5092.94L435.652 5155.56C435.864 5156.3 436.326 5156.94 436.959 5157.38C437.592 5157.82 438.356 5158.02 439.123 5157.96L498.835 5153.02L498.286 5146.39L441.295 5151.1L437.543 5138.05L497.189 5133.12C497.943 5133.06 498.654 5132.74 499.203 5132.22C499.753 5131.7 500.109 5131 500.211 5130.25L504.932 5095.74L498.141 5096.3L493.979 5126.7L435.668 5131.53L423.29 5088.48Z" fill="#9A4176" fill-opacity="0.21"/>
<path d="M479.414 5096.47L468.502 5109.35L466.26 5082.24L459.626 5082.78L461.868 5109.89L448.988 5098.98L444.685 5104.06L466.235 5122.32L484.493 5100.77L479.414 5096.47Z" fill="#9A4176" fill-opacity="0.21"/>
</g>
<path d="M472.405 5372.21C472.723 5371.79 472.917 5371.29 472.966 5370.76C473.015 5370.24 472.916 5369.71 472.68 5369.23C472.444 5368.76 472.082 5368.37 471.632 5368.09C471.183 5367.81 470.666 5367.67 470.138 5367.67H451.977C451.478 5367.67 450.989 5367.8 450.557 5368.05C450.126 5368.3 449.768 5368.66 449.52 5369.09L435.77 5393.05C435.523 5393.48 435.394 5393.97 435.395 5394.46C435.397 5394.96 435.528 5395.45 435.778 5395.88C436.027 5396.31 436.384 5396.66 436.815 5396.91C437.245 5397.16 437.733 5397.29 438.229 5397.29H447.5L438.762 5420.14C437.501 5423.03 440.915 5425.67 443.21 5423.58L478.667 5388.44H460.14L472.402 5372.21H472.405Z" stroke="#FCF298" stroke-opacity="0.8" stroke-width="2" stroke-linecap="round" stroke-linejoin="round"/>
<g clip-path="url(#clip12_80_116)">
<path d="M486.958 2264.26L494.537 2222.81C494.855 2221.07 494.459 2219.25 493.443 2217.78L479.687 2197.87C477.577 2194.82 473.351 2194.04 470.297 2196.15L450.388 2209.91C448.916 2210.93 447.903 2212.49 447.605 2214.25L440.026 2255.71C439.356 2259.37 441.793 2262.9 445.455 2263.57L479.119 2269.72C482.782 2270.39 486.28 2267.97 486.958 2264.26ZM467.823 2216.32C466.231 2214.02 466.806 2210.87 469.111 2209.28C471.415 2207.69 474.561 2208.26 476.153 2210.57C477.746 2212.87 477.171 2216.02 474.866 2217.61C472.561 2219.2 469.415 2218.63 467.823 2216.32Z" fill="#E5E5E5"/>
</g>
<path d="M373.975 2412.12C374.921 2410.58 375.541 2408.86 375.797 2407.07C376.052 2405.28 375.938 2403.46 375.461 2401.71C375.093 2400.03 374.638 2398.37 374.098 2396.74L389.267 2388.31C390.583 2391.43 391.055 2394.83 390.635 2398.19C390.58 2398.43 390.575 2398.69 390.618 2398.94C390.662 2399.18 390.754 2399.42 390.889 2399.63C391.024 2399.85 391.2 2400.03 391.406 2400.17C391.613 2400.32 391.845 2400.42 392.091 2400.48C392.337 2400.53 392.591 2400.54 392.839 2400.49C393.087 2400.45 393.324 2400.36 393.536 2400.22C393.749 2400.09 393.932 2399.91 394.077 2399.7C394.221 2399.5 394.324 2399.27 394.378 2399.02C395.022 2394.75 394.42 2390.38 392.645 2386.44L397.829 2383.56C398.273 2383.31 398.601 2382.9 398.74 2382.41C398.88 2381.93 398.82 2381.4 398.573 2380.96C398.327 2380.52 397.915 2380.19 397.427 2380.05C396.939 2379.91 396.416 2379.97 395.973 2380.22L390.955 2383C386.703 2375.74 380.784 2373.71 376.936 2374.22C374.443 2374.53 372.137 2375.7 370.428 2377.55C368.72 2379.39 367.718 2381.77 367.601 2384.28C367.453 2387.92 368.095 2391.55 369.482 2394.92L354.163 2403.43C351.959 2398.94 351.242 2393.87 352.116 2388.94C352.212 2388.69 352.254 2388.42 352.239 2388.15C352.224 2387.89 352.153 2387.62 352.029 2387.38C351.906 2387.14 351.734 2386.93 351.523 2386.77C351.313 2386.6 351.07 2386.48 350.809 2386.41C350.549 2386.34 350.277 2386.33 350.012 2386.37C349.746 2386.42 349.493 2386.52 349.269 2386.67C349.045 2386.82 348.855 2387.01 348.711 2387.24C348.568 2387.47 348.474 2387.72 348.436 2387.99C347.289 2393.86 348.127 2399.94 350.818 2405.28L345.801 2408.07C345.357 2408.32 345.03 2408.73 344.89 2409.22C344.751 2409.7 344.811 2410.23 345.057 2410.67C345.303 2411.11 345.716 2411.44 346.203 2411.58C346.691 2411.72 347.214 2411.66 347.658 2411.41L352.675 2408.63C355.611 2413.17 360.134 2417.77 367.413 2416.42C368.737 2416.17 369.998 2415.66 371.124 2414.92C372.25 2414.19 373.219 2413.23 373.975 2412.12ZM371.46 2384.61C371.509 2382.99 372.136 2381.44 373.228 2380.23C374.32 2379.03 375.806 2378.25 377.418 2378.05C378.022 2377.95 383.26 2377.49 387.611 2384.86L372.894 2393.03C371.83 2390.36 371.341 2387.49 371.46 2384.61ZM366.786 2412.61C362.539 2413.39 359.331 2411.67 356.087 2406.74L370.687 2398.63C371.047 2399.83 371.392 2401.08 371.691 2402.45C372.053 2403.69 372.159 2405 372.001 2406.29C371.843 2407.57 371.425 2408.82 370.772 2409.94C369.842 2411.31 368.412 2412.27 366.786 2412.61Z" fill="#CDB991" fill-opacity="0.5"/>
<g clip-path="url(#clip13_80_116)">
<path d="M403.298 2088.63C404.948 2090.49 407.792 2090.66 409.651 2089.01C411.51 2087.36 411.68 2084.51 410.031 2082.65C408.381 2080.8 405.537 2080.63 403.678 2082.27C401.819 2083.92 401.649 2086.77 403.298 2088.63Z" fill="#9A4176" fill-opacity="0.21"/>
<path d="M424.203 2112.19C425.852 2114.05 428.697 2114.22 430.556 2112.57C432.415 2110.92 432.585 2108.08 430.936 2106.22C429.286 2104.36 426.442 2104.19 424.583 2105.84C422.724 2107.49 422.554 2110.33 424.203 2112.19Z" fill="#9A4176" fill-opacity="0.21"/>
<path d="M441.576 2039.57C441.89 2039.15 442.05 2038.64 442.03 2038.12C442.01 2037.6 441.811 2037.11 441.466 2036.72L435.493 2029.99L432.127 2032.97L436.875 2038.33L410.3 2073.45C409.987 2073.87 409.826 2074.38 409.846 2074.9C409.866 2075.42 410.066 2075.91 410.41 2076.3L437.288 2106.6L440.654 2103.61L415.001 2074.7L420.539 2067.38L447.387 2097.64C447.727 2098.02 448.187 2098.28 448.691 2098.36C449.196 2098.45 449.715 2098.36 450.162 2098.11L470.745 2086.67L467.688 2083.23L449.555 2093.3L423.308 2063.72L441.576 2039.57Z" fill="#9A4176" fill-opacity="0.21"/>
<path d="M460.007 2073.17L448.617 2072.48L462.371 2060.28L459.384 2056.92L445.63 2069.12L446.311 2057.73L441.82 2057.46L440.68 2076.52L459.738 2077.66L460.007 2073.17Z" fill="#9A4176" fill-opacity="0.21"/>
</g>
<g clip-path="url(#clip14_80_116)">
<path d="M303.131 2163.98C303.699 2163.75 304.336 2163.76 304.901 2163.99C305.466 2164.23 305.914 2164.68 306.145 2165.25L311.384 2178.1L324.232 2172.86C324.8 2172.63 325.436 2172.63 326.002 2172.87C326.567 2173.11 327.015 2173.56 327.246 2174.13C327.478 2174.7 327.474 2175.34 327.236 2175.9C326.998 2176.47 326.546 2176.91 325.978 2177.15L313.13 2182.38L318.368 2195.23C318.599 2195.8 318.596 2196.44 318.358 2197C318.12 2197.57 317.667 2198.01 317.099 2198.25C316.531 2198.48 315.895 2198.47 315.329 2198.24C314.764 2198 314.317 2197.55 314.085 2196.98L308.847 2184.13L295.999 2189.37C295.431 2189.6 294.794 2189.6 294.229 2189.36C293.663 2189.12 293.216 2188.67 292.984 2188.1C292.753 2187.53 292.756 2186.89 292.994 2186.33C293.232 2185.76 293.685 2185.32 294.253 2185.09L307.101 2179.85L301.863 2167C301.631 2166.43 301.635 2165.79 301.873 2165.23C302.11 2164.66 302.563 2164.22 303.131 2163.98V2163.98Z" fill="#9BE1A6" fill-opacity="0.42"/>
</g>
<path d="M279.51 2485.41C279.772 2485.06 279.932 2484.65 279.972 2484.22C280.012 2483.78 279.93 2483.35 279.736 2482.96C279.542 2482.57 279.244 2482.24 278.874 2482.01C278.504 2481.79 278.078 2481.67 277.643 2481.67H262.687C262.276 2481.67 261.873 2481.78 261.518 2481.98C261.163 2482.19 260.868 2482.48 260.664 2482.84L249.34 2502.57C249.137 2502.92 249.03 2503.33 249.031 2503.73C249.033 2504.14 249.141 2504.55 249.346 2504.9C249.551 2505.25 249.846 2505.55 250.2 2505.75C250.555 2505.95 250.956 2506.06 251.365 2506.06H259L251.804 2524.88C250.766 2527.26 253.577 2529.44 255.467 2527.72L284.667 2498.77H269.409L279.508 2485.41H279.51Z" stroke="#FCF298" stroke-opacity="0.8" stroke-width="2" stroke-linecap="round" stroke-linejoin="round"/>
<g clip-path="url(#clip15_80_116)">
<path d="M403.298 2088.63C404.948 2090.49 407.792 2090.66 409.651 2089.01C411.51 2087.36 411.68 2084.51 410.031 2082.65C408.381 2080.8 405.537 2080.63 403.678 2082.27C401.819 2083.92 401.649 2086.77 403.298 2088.63Z" fill="#9A4176" fill-opacity="0.21"/>
<path d="M424.203 2112.19C425.852 2114.05 428.697 2114.22 430.556 2112.57C432.415 2110.92 432.585 2108.08 430.936 2106.22C429.286 2104.36 426.442 2104.19 424.583 2105.84C422.724 2107.49 422.554 2110.33 424.203 2112.19Z" fill="#9A4176" fill-opacity="0.21"/>
<path d="M441.576 2039.57C441.89 2039.15 442.05 2038.64 442.03 2038.12C442.01 2037.6 441.811 2037.11 441.466 2036.72L435.493 2029.99L432.127 2032.97L436.875 2038.33L410.3 2073.45C409.987 2073.87 409.826 2074.38 409.846 2074.9C409.866 2075.42 410.066 2075.91 410.41 2076.3L437.288 2106.6L440.654 2103.61L415.001 2074.7L420.539 2067.38L447.387 2097.64C447.727 2098.02 448.187 2098.28 448.691 2098.36C449.196 2098.45 449.715 2098.36 450.162 2098.11L470.745 2086.67L467.688 2083.23L449.555 2093.3L423.308 2063.72L441.576 2039.57Z" fill="#9A4176" fill-opacity="0.21"/>
<path d="M460.007 2073.17L448.617 2072.48L462.371 2060.28L459.384 2056.92L445.63 2069.12L446.311 2057.73L441.82 2057.46L440.68 2076.52L459.738 2077.66L460.007 2073.17Z" fill="#9A4176" fill-opacity="0.21"/>
</g>
<g clip-path="url(#clip16_80_116)">
<path d="M1432.42 1755.63C1436.99 1758.23 1442.8 1756.63 1445.4 1752.06C1448 1747.49 1446.4 1741.68 1441.83 1739.08C1437.26 1736.48 1431.44 1738.08 1428.84 1742.65C1426.25 1747.22 1427.85 1753.04 1432.42 1755.63Z" fill="#D6CDF9" fill-opacity="0.58"/>
<path d="M1482.72 1784.23C1487.29 1786.83 1493.11 1785.23 1495.71 1780.66C1498.31 1776.08 1496.71 1770.27 1492.13 1767.67C1487.56 1765.07 1481.75 1766.67 1479.15 1771.24C1476.55 1775.82 1478.15 1781.63 1482.72 1784.23Z" fill="#D6CDF9" fill-opacity="0.58"/>
<path d="M1560.79 1698.95C1560.69 1698.34 1560.45 1697.75 1560.1 1697.24C1559.74 1696.72 1559.28 1696.29 1558.74 1695.98L1482.12 1652.43L1480.33 1661.15L1549.73 1700.6L1514.81 1739.17L1459.61 1707.8L1473.06 1644.99C1473.2 1644.32 1473.17 1643.63 1472.99 1642.98C1472.8 1642.32 1472.46 1641.72 1471.99 1641.22L1459.54 1628.01C1459.16 1627.6 1458.7 1627.27 1458.19 1627.05C1457.68 1626.82 1457.13 1626.69 1456.57 1626.67C1455.44 1626.64 1454.35 1627.06 1453.53 1627.83C1452.71 1628.6 1452.23 1629.67 1452.2 1630.8C1452.16 1631.92 1452.58 1633.02 1453.35 1633.84L1464.26 1645.4L1450.82 1708.35L1441.98 1709.85L1441.23 1710.06C1438.76 1710.93 1436.67 1712.64 1435.33 1714.88C1433.98 1717.13 1433.46 1719.78 1433.85 1722.37C1434.16 1724.16 1434.88 1725.85 1435.96 1727.31C1437.05 1728.77 1438.45 1729.96 1440.07 1730.77L1501.49 1765.68C1502.47 1766.24 1503.62 1766.38 1504.7 1766.09C1505.79 1765.79 1506.71 1765.07 1507.26 1764.1C1507.82 1763.12 1507.96 1761.96 1507.66 1760.88C1507.36 1759.8 1506.65 1758.88 1505.67 1758.32L1443.67 1723.08C1443.25 1722.82 1442.91 1722.47 1442.67 1722.04C1442.44 1721.61 1442.31 1721.13 1442.32 1720.65C1442.32 1720.16 1442.45 1719.68 1442.69 1719.26C1442.93 1718.83 1443.28 1718.48 1443.7 1718.23L1456.75 1715.91L1513.57 1748.21C1514.41 1748.71 1515.39 1748.91 1516.36 1748.77C1517.33 1748.62 1518.22 1748.15 1518.88 1747.43L1559.83 1702.54C1560.25 1702.06 1560.56 1701.48 1560.73 1700.86C1560.89 1700.24 1560.92 1699.59 1560.79 1698.95Z" fill="#D6CDF9" fill-opacity="0.58"/>
</g>
<g clip-path="url(#clip17_80_116)">
<path fill-rule="evenodd" clip-rule="evenodd" d="M1608.34 1676.84L1606.91 1676.59C1605.2 1676.29 1603.45 1676.46 1601.83 1677.09C1600.2 1677.72 1598.74 1678.78 1597.58 1680.19C1596.43 1681.59 1595.61 1683.29 1595.22 1685.13C1594.82 1686.97 1594.85 1688.88 1595.3 1690.7L1596.81 1696.73C1597.57 1699.74 1599.3 1702.35 1601.68 1704.07C1604.07 1705.79 1606.94 1706.51 1609.77 1706.08L1614.16 1705.43C1616.99 1705 1619.58 1703.47 1621.45 1701.11C1623.33 1698.75 1624.35 1695.72 1624.33 1692.6L1624.3 1686.36C1624.29 1684.47 1623.85 1682.61 1623.02 1680.96C1622.18 1679.31 1620.98 1677.91 1619.52 1676.9C1618.06 1675.89 1616.4 1675.29 1614.67 1675.16C1612.95 1675.04 1611.22 1675.39 1609.66 1676.18L1608.34 1676.85L1608.34 1676.84ZM1604.6 1685.13C1604.94 1685.03 1605.3 1685.01 1605.65 1685.07L1609.45 1685.74L1612.95 1683.97C1613.32 1683.78 1613.74 1683.7 1614.15 1683.73C1614.56 1683.76 1614.96 1683.9 1615.31 1684.14C1615.65 1684.39 1615.94 1684.72 1616.14 1685.12C1616.34 1685.51 1616.45 1685.95 1616.45 1686.41L1616.48 1692.64C1616.48 1693.69 1616.14 1694.69 1615.52 1695.48C1614.89 1696.27 1614.03 1696.78 1613.09 1696.92L1608.71 1697.58C1607.76 1697.72 1606.8 1697.48 1606.01 1696.91C1605.21 1696.33 1604.64 1695.46 1604.39 1694.46L1602.88 1688.44C1602.71 1687.75 1602.79 1687.01 1603.11 1686.39C1603.44 1685.77 1603.97 1685.31 1604.6 1685.13Z" fill="#9BE1A6" fill-opacity="0.42"/>
<path fill-rule="evenodd" clip-rule="evenodd" d="M1618.92 1698.21L1602.48 1700.68C1600.38 1700.99 1598.39 1701.92 1596.74 1703.36C1590.67 1708.65 1586.39 1714.21 1583.91 1720.06C1583.11 1721.93 1582.29 1723.65 1581.52 1725.26C1578.15 1732.25 1575.82 1737.11 1581.74 1742.73C1589.03 1749.66 1603.01 1752.59 1616.12 1750.63C1629.23 1748.66 1641.92 1743.79 1649.16 1732.63C1654.52 1724.37 1651.5 1721.5 1646.81 1717.02C1645.16 1715.45 1643.31 1713.69 1641.54 1711.42C1637.56 1706.34 1632.04 1702.21 1624.99 1699.06C1623.07 1698.2 1620.98 1697.91 1618.92 1698.21ZM1635.56 1717C1636.47 1718.17 1637.43 1719.26 1638.47 1720.36C1638.69 1720.59 1639.34 1721.23 1640.14 1722.02C1641.42 1723.27 1643.06 1724.89 1643.87 1725.75C1643.65 1726.18 1643.3 1726.82 1642.75 1727.67C1637.71 1735.44 1628.33 1740.13 1615.06 1742.12C1603.74 1743.81 1592.13 1741.21 1586.9 1736.24C1586.02 1735.42 1585.96 1735.4 1585.96 1735.39L1585.96 1735.38C1586.01 1734.86 1586.34 1733.84 1587.11 1732.13L1588.03 1730.18C1588.88 1728.39 1590.06 1725.89 1590.57 1724.74C1590.73 1724.39 1590.89 1724.03 1591.03 1723.68C1592.97 1719.13 1596.46 1714.58 1601.63 1710.08C1602.19 1709.6 1602.85 1709.29 1603.55 1709.18L1619.99 1706.72C1620.68 1706.62 1621.38 1706.71 1622.02 1707C1627.97 1709.67 1632.45 1713.02 1635.56 1717L1635.56 1717Z" fill="#9BE1A6" fill-opacity="0.42"/>
<path d="M1591.26 1673.24C1590.87 1672.5 1590.77 1671.62 1590.98 1670.79C1591.18 1669.97 1591.68 1669.27 1592.36 1668.85C1593.04 1668.42 1593.84 1668.31 1594.6 1668.54C1595.35 1668.76 1595.99 1669.31 1596.38 1670.05L1601.6 1680.1C1601.97 1680.84 1602.05 1681.71 1601.84 1682.52C1601.63 1683.33 1601.14 1684.01 1600.47 1684.43C1599.8 1684.85 1599.01 1684.96 1598.26 1684.75C1597.52 1684.53 1596.88 1684.01 1596.48 1683.28L1591.26 1673.23L1591.26 1673.24Z" fill="#9BE1A6" fill-opacity="0.42"/>
<path d="M1618.19 1666.79C1618.4 1665.97 1618.88 1665.28 1619.55 1664.85C1620.21 1664.43 1621 1664.3 1621.75 1664.51C1622.5 1664.71 1623.14 1665.23 1623.54 1665.95C1623.95 1666.66 1624.08 1667.53 1623.91 1668.35L1621.35 1679.56C1621.15 1680.38 1620.66 1681.07 1620 1681.49C1619.33 1681.92 1618.54 1682.04 1617.79 1681.84C1617.04 1681.64 1616.4 1681.12 1616 1680.4C1615.59 1679.68 1615.46 1678.82 1615.64 1678L1618.19 1666.79Z" fill="#9BE1A6" fill-opacity="0.42"/>
<path d="M1611.62 1718.81C1611.55 1718.24 1611.69 1717.67 1612 1717.22C1612.32 1716.76 1612.78 1716.46 1613.3 1716.39C1613.81 1716.31 1614.34 1716.46 1614.75 1716.8C1615.17 1717.15 1615.44 1717.66 1615.51 1718.22L1617.64 1735.23C1617.71 1735.8 1617.58 1736.37 1617.26 1736.82C1616.95 1737.28 1616.48 1737.57 1615.96 1737.65C1615.45 1737.73 1614.92 1737.58 1614.51 1737.23C1614.1 1736.89 1613.82 1736.38 1613.75 1735.82L1611.62 1718.81Z" fill="#9BE1A6" fill-opacity="0.42"/>
<path d="M1601.98 1719.28C1602.06 1719 1602.18 1718.75 1602.35 1718.52C1602.52 1718.3 1602.72 1718.11 1602.96 1717.98C1603.19 1717.85 1603.45 1717.77 1603.72 1717.74C1603.98 1717.72 1604.25 1717.76 1604.5 1717.85C1604.75 1717.94 1604.98 1718.09 1605.18 1718.28C1605.37 1718.48 1605.53 1718.71 1605.64 1718.97C1605.76 1719.24 1605.82 1719.52 1605.83 1719.81C1605.84 1720.1 1605.79 1720.39 1605.7 1720.66L1601.47 1734.33C1601.29 1734.85 1600.93 1735.27 1600.47 1735.51C1600.01 1735.75 1599.48 1735.78 1599 1735.6C1598.51 1735.43 1598.11 1735.05 1597.88 1734.55C1597.65 1734.05 1597.6 1733.48 1597.75 1732.95L1601.98 1719.28Z" fill="#9BE1A6" fill-opacity="0.42"/>
<path d="M1624.91 1715.84C1624.76 1715.61 1624.58 1715.41 1624.36 1715.25C1624.15 1715.1 1623.9 1714.99 1623.65 1714.93C1623.39 1714.88 1623.13 1714.88 1622.88 1714.94C1622.63 1715 1622.39 1715.11 1622.17 1715.27C1621.96 1715.43 1621.78 1715.64 1621.63 1715.88C1621.49 1716.11 1621.4 1716.38 1621.35 1716.66C1621.3 1716.94 1621.31 1717.22 1621.36 1717.5C1621.42 1717.78 1621.52 1718.04 1621.67 1718.27L1629.1 1730.15C1629.25 1730.39 1629.44 1730.59 1629.65 1730.75C1629.87 1730.9 1630.11 1731.01 1630.36 1731.06C1630.62 1731.12 1630.88 1731.11 1631.13 1731.06C1631.39 1731 1631.63 1730.89 1631.84 1730.73C1632.06 1730.57 1632.24 1730.36 1632.38 1730.12C1632.52 1729.89 1632.62 1729.62 1632.66 1729.34C1632.71 1729.06 1632.71 1728.78 1632.65 1728.5C1632.6 1728.22 1632.49 1727.96 1632.34 1727.73L1624.91 1715.84Z" fill="#9BE1A6" fill-opacity="0.42"/>
</g>
<g clip-path="url(#clip18_80_116)">
<path d="M1580.82 1917.78L1622.96 1918.48C1624.73 1918.51 1626.46 1917.83 1627.74 1916.58L1645.14 1899.76C1647.81 1897.18 1647.88 1892.89 1645.3 1890.22L1628.48 1872.82C1627.23 1871.54 1625.53 1870.79 1623.74 1870.78L1581.6 1870.08C1577.88 1870.01 1574.79 1872.99 1574.73 1876.72L1574.16 1910.93C1574.09 1914.66 1577.05 1917.71 1580.82 1917.78ZM1625 1891.07C1627.01 1889.12 1630.21 1889.18 1632.15 1891.19C1634.1 1893.2 1634.05 1896.4 1632.03 1898.35C1630.02 1900.3 1626.82 1900.24 1624.88 1898.23C1622.93 1896.21 1622.98 1893.02 1625 1891.07Z" fill="#E5E5E5"/>
</g>
<path d="M1742.08 1759.42C1743.03 1757.87 1743.65 1756.16 1743.9 1754.37C1744.16 1752.58 1744.05 1750.75 1743.57 1749.01C1743.2 1747.33 1742.75 1745.67 1742.21 1744.03L1757.37 1735.61C1758.69 1738.72 1759.16 1742.13 1758.74 1745.48C1758.69 1745.73 1758.68 1745.98 1758.73 1746.23C1758.77 1746.48 1758.86 1746.72 1759 1746.93C1759.13 1747.14 1759.31 1747.33 1759.51 1747.47C1759.72 1747.62 1759.95 1747.72 1760.2 1747.77C1760.44 1747.83 1760.7 1747.83 1760.95 1747.79C1761.19 1747.75 1761.43 1747.65 1761.64 1747.52C1761.86 1747.38 1762.04 1747.21 1762.18 1747C1762.33 1746.79 1762.43 1746.56 1762.49 1746.32C1763.13 1742.04 1762.53 1737.68 1760.75 1733.74L1765.94 1730.86C1766.38 1730.61 1766.71 1730.2 1766.85 1729.71C1766.99 1729.22 1766.93 1728.7 1766.68 1728.26C1766.44 1727.81 1766.02 1727.49 1765.53 1727.35C1765.05 1727.21 1764.52 1727.27 1764.08 1727.51L1759.06 1730.3C1754.81 1723.03 1748.89 1721 1745.04 1721.52C1742.55 1721.82 1740.25 1723 1738.54 1724.84C1736.83 1726.68 1735.83 1729.07 1735.71 1731.58C1735.56 1735.22 1736.2 1738.85 1737.59 1742.22L1722.27 1750.72C1720.07 1746.24 1719.35 1741.16 1720.22 1736.24C1720.32 1735.99 1720.36 1735.72 1720.35 1735.45C1720.33 1735.18 1720.26 1734.92 1720.14 1734.68C1720.01 1734.44 1719.84 1734.23 1719.63 1734.06C1719.42 1733.89 1719.18 1733.77 1718.92 1733.7C1718.66 1733.64 1718.38 1733.63 1718.12 1733.67C1717.85 1733.71 1717.6 1733.82 1717.38 1733.96C1717.15 1734.11 1716.96 1734.31 1716.82 1734.54C1716.68 1734.76 1716.58 1735.02 1716.54 1735.29C1715.4 1741.16 1716.23 1747.24 1718.93 1752.58L1713.91 1755.37C1713.47 1755.61 1713.14 1756.03 1713 1756.51C1712.86 1757 1712.92 1757.52 1713.16 1757.97C1713.41 1758.41 1713.82 1758.74 1714.31 1758.88C1714.8 1759.02 1715.32 1758.96 1715.77 1758.71L1720.78 1755.93C1723.72 1760.47 1728.24 1765.07 1735.52 1763.71C1736.84 1763.47 1738.11 1762.96 1739.23 1762.22C1740.36 1761.48 1741.33 1760.53 1742.08 1759.42ZM1739.57 1731.91C1739.62 1730.29 1740.24 1728.73 1741.34 1727.53C1742.43 1726.32 1743.91 1725.55 1745.53 1725.34C1746.13 1725.25 1751.37 1724.79 1755.72 1732.16L1741 1740.33C1739.94 1737.65 1739.45 1734.79 1739.57 1731.91ZM1734.89 1759.91C1730.65 1760.69 1727.44 1758.97 1724.19 1754.03L1738.79 1745.93C1739.15 1747.13 1739.5 1748.38 1739.8 1749.74C1740.16 1750.99 1740.27 1752.3 1740.11 1753.58C1739.95 1754.87 1739.53 1756.11 1738.88 1757.23C1737.95 1758.61 1736.52 1759.57 1734.89 1759.91Z" fill="#CDB991" fill-opacity="0.5"/>
<path d="M1469.27 2056.01C1466.27 2040.58 1463.78 2031.82 1461.88 2029.97C1460.37 2028.52 1457.33 2027.58 1451.63 2025.92C1447.36 2024.68 1442.05 2023.14 1439.88 2021.68L1437.84 2020.3L1435.71 2021.91C1435.55 2022.03 1427.92 2027.57 1419.75 2025.93C1411.53 2024.27 1407.64 2016.35 1407.6 2016.26L1406.54 2014.04L1404 2014.48C1401.29 2014.96 1395.73 2014.32 1391.26 2013.81C1385.28 2013.12 1382.06 2012.8 1379.95 2013.52C1377.27 2014.45 1370.41 2021.33 1359.57 2033.99L1358.4 2035.34L1358.62 2037.03C1360.65 2052.87 1374.17 2058.98 1374.75 2059.24L1376.55 2060.02L1359.83 2112.49L1359.14 2114.65L1360.66 2116.1C1375.07 2129.86 1404.68 2135.81 1424.85 2128.98L1426.97 2128.26L1427.5 2126.08L1440.31 2072.82L1442.34 2072.8C1442.99 2072.8 1458.31 2072.48 1468.51 2059.09L1469.6 2057.67L1469.27 2056.01ZM1458.41 2059.65C1453 2064.02 1447.32 2065.9 1441.5 2065.26L1439.82 2059.71L1423.99 2125.52C1404.41 2132.14 1377.26 2126.69 1363.27 2113.33L1383.93 2048.49L1379.63 2052.71C1374.09 2051.07 1370.01 2047.23 1367.5 2041.27C1366.37 2038.56 1365.63 2035.67 1365.3 2032.69L1365.12 2032.9C1369.79 2027.58 1378.65 2017.74 1380.84 2016.98C1383.5 2016.06 1395.1 2018.48 1401.93 2018.28C1403.16 2020.4 1404.6 2022.39 1406.24 2024.2C1407.75 2025.87 1409.48 2027.34 1411.37 2028.58C1413.67 2030.07 1416.11 2031.08 1418.65 2031.58L1418.72 2031.6C1421.79 2032.2 1425.01 2032.08 1428.28 2031.22C1431.9 2030.28 1435.63 2028.42 1439.39 2025.72C1445.3 2028.56 1457.33 2030.86 1459.26 2032.72C1460.81 2034.23 1463.51 2046.32 1464.87 2052.86C1463.01 2055.38 1460.84 2057.66 1458.41 2059.65Z" fill="#F7E6C6"/>
<g clip-path="url(#clip19_80_116)">
<path d="M1695.6 1378.93C1694.94 1379.35 1694.47 1380.02 1694.28 1380.78C1694.1 1381.55 1694.22 1382.36 1694.62 1383.03C1695.01 1383.71 1695.66 1384.21 1696.41 1384.43C1697.17 1384.65 1697.98 1384.56 1698.68 1384.2C1711.02 1377.02 1722.68 1384.24 1729.33 1390.18L1725.84 1393.78C1724.67 1394.99 1723.96 1397.32 1724.26 1398.97L1727.4 1414.76C1727.83 1416.68 1728.78 1418.45 1730.13 1419.88L1771.84 1460.09C1772.82 1461.03 1774.12 1461.54 1775.47 1461.51C1776.82 1461.49 1778.1 1460.93 1779.04 1459.96L1805.2 1432.91C1807.15 1430.88 1806.39 1428.4 1804.37 1426.45L1762.65 1386.24C1761.45 1385.08 1759.1 1383.93 1757.44 1383.69L1740.88 1381.78C1739.22 1381.53 1736.91 1382.33 1735.74 1383.54L1733.62 1385.73C1724.62 1377.77 1710.06 1370.52 1695.6 1378.93ZM1746.2 1391.57C1746.97 1392.31 1747.58 1393.2 1748.01 1394.18C1748.43 1395.15 1748.66 1396.21 1748.68 1397.27C1748.7 1398.34 1748.5 1399.4 1748.11 1400.39C1747.72 1401.39 1747.14 1402.29 1746.4 1403.06C1744.9 1404.61 1742.84 1405.5 1740.68 1405.54C1738.52 1405.58 1736.44 1404.76 1734.88 1403.27C1733.67 1402.09 1732.85 1400.57 1732.54 1398.9C1732.23 1397.24 1732.45 1395.52 1733.17 1393.99C1734.24 1395.18 1734.9 1396.01 1735.01 1396.17C1735.42 1396.73 1736.01 1397.13 1736.68 1397.31C1737.35 1397.49 1738.06 1397.43 1738.69 1397.16C1739.33 1396.88 1739.85 1396.39 1740.17 1395.78C1740.5 1395.16 1740.6 1394.46 1740.47 1393.78C1740.39 1393.35 1740.2 1392.93 1739.93 1392.56C1739.29 1391.69 1738.55 1390.76 1737.7 1389.81C1739.14 1389.27 1740.7 1389.15 1742.2 1389.47C1743.71 1389.78 1745.09 1390.51 1746.2 1391.57Z" fill="#9A4176" fill-opacity="0.21"/>
</g>
<g clip-path="url(#clip20_80_116)">
<path d="M1732.13 1574.98C1732.7 1574.75 1733.34 1574.76 1733.9 1574.99C1734.47 1575.23 1734.91 1575.68 1735.15 1576.25L1740.38 1589.1L1753.23 1583.86C1753.8 1583.63 1754.44 1583.63 1755 1583.87C1755.57 1584.11 1756.01 1584.56 1756.25 1585.13C1756.48 1585.7 1756.47 1586.34 1756.24 1586.9C1756 1587.47 1755.55 1587.91 1754.98 1588.15L1742.13 1593.38L1747.37 1606.23C1747.6 1606.8 1747.6 1607.44 1747.36 1608C1747.12 1608.57 1746.67 1609.01 1746.1 1609.25C1745.53 1609.48 1744.89 1609.47 1744.33 1609.24C1743.76 1609 1743.32 1608.55 1743.08 1607.98L1737.85 1595.13L1725 1600.37C1724.43 1600.6 1723.79 1600.6 1723.23 1600.36C1722.66 1600.12 1722.22 1599.67 1721.98 1599.1C1721.75 1598.53 1721.76 1597.89 1721.99 1597.33C1722.23 1596.76 1722.68 1596.32 1723.25 1596.09L1736.1 1590.85L1730.86 1578C1730.63 1577.43 1730.63 1576.79 1730.87 1576.23C1731.11 1575.66 1731.56 1575.22 1732.13 1574.98V1574.98Z" fill="#9BE1A6" fill-opacity="0.42"/>
</g>
<defs>
<radialGradient id="paint0_radial_80_116" cx="0" cy="0" r="1" gradientUnits="userSpaceOnUse" gradientTransform="translate(949.923 -150.704) rotate(90) scale(5977.38 1692.95)">
<stop stop-color="#CDB991"/>
<stop offset="1" stop-color="#E7D6B7"/>
</radialGradient>
<linearGradient id="paint1_linear_80_116" x1="1636.81" y1="2884.96" x2="2180.59" y2="2236.13" gradientUnits="userSpaceOnUse">
<stop stop-color="#EBE6FF"/>
<stop offset="1" stop-color="#E7D6B7"/>
</linearGradient>
<linearGradient id="paint2_linear_80_116" x1="1931.37" y1="5033.55" x2="1833.21" y2="5945.76" gradientUnits="userSpaceOnUse">
<stop stop-color="#EBE6FF"/>
<stop offset="1" stop-color="#E7D6B7"/>
</linearGradient>
<linearGradient id="paint3_linear_80_116" x1="-270.255" y1="3242.59" x2="82.0338" y2="4404.12" gradientUnits="userSpaceOnUse">
<stop stop-color="#F7E6C6"/>
<stop offset="1" stop-color="#D6CDF9"/>
</linearGradient>
<linearGradient id="paint4_linear_80_116" x1="1518.31" y1="-427.623" x2="1749.19" y2="597.338" gradientUnits="userSpaceOnUse">
<stop stop-color="#F7E6C6"/>
<stop offset="1" stop-color="#D6CDF9"/>
</linearGradient>
<linearGradient id="paint5_linear_80_116" x1="-282.421" y1="94.7452" x2="41.5961" y2="1048.86" gradientUnits="userSpaceOnUse">
<stop stop-color="#EBE6FF"/>
<stop offset="1" stop-color="#E7D6B7"/>
</linearGradient>
<clipPath id="clip0_80_116">
<rect width="152.377" height="152.377" fill="white" transform="translate(1394 3598.91) rotate(-8.26665)"/>
</clipPath>
<clipPath id="clip1_80_116">
<rect width="81" height="81" fill="white" transform="translate(1764.25 3514.98) rotate(-116.117)"/>
</clipPath>
<clipPath id="clip2_80_116">
<rect width="68.8618" height="68.8618" fill="white" transform="translate(1604.15 3482) rotate(23.0806)"/>
</clipPath>
<clipPath id="clip3_80_116">
<rect width="37" height="37" fill="white" transform="translate(1592 3823.97) rotate(-22.1804)"/>
</clipPath>
<clipPath id="clip4_80_116">
<rect width="101" height="101" fill="white" transform="translate(1649.28 3787.42) rotate(-101.007)"/>
</clipPath>
<clipPath id="clip5_80_116">
<rect width="152.377" height="152.377" fill="white" transform="translate(272 159.888) rotate(-16.3472)"/>
</clipPath>
<clipPath id="clip6_80_116">
<rect width="101" height="101" fill="white" transform="translate(432.285 491.426) rotate(-101.007)"/>
</clipPath>
<clipPath id="clip7_80_116">
<rect width="37" height="37" fill="white" transform="translate(378.9 344) rotate(22.0658)"/>
</clipPath>
<clipPath id="clip8_80_116">
<rect width="81" height="81" fill="white" transform="translate(630.109 5321.39) rotate(98.0806)"/>
</clipPath>
<clipPath id="clip9_80_116">
<rect width="68.8618" height="68.8618" fill="white" transform="translate(641.678 5070) rotate(23.0806)"/>
</clipPath>
<clipPath id="clip10_80_116">
<rect width="46.1409" height="46.1409" fill="white" transform="translate(557.517 5186) rotate(7.45959)"/>
</clipPath>
<clipPath id="clip11_80_116">
<rect width="106.516" height="106.516" fill="white" transform="translate(406 5080.54) rotate(-4.72785)"/>
</clipPath>
<clipPath id="clip12_80_116">
<rect width="81" height="81" fill="white" transform="translate(477.567 2182.93) rotate(55.3594)"/>
</clipPath>
<clipPath id="clip13_80_116">
<rect width="72" height="72" fill="white" transform="translate(438.859 2027) rotate(48.4215)"/>
</clipPath>
<clipPath id="clip14_80_116">
<rect width="37" height="37" fill="white" transform="translate(286 2170.97) rotate(-22.1804)"/>
</clipPath>
<clipPath id="clip15_80_116">
<rect width="72" height="72" fill="white" transform="translate(438.859 2027) rotate(48.4215)"/>
</clipPath>
<clipPath id="clip16_80_116">
<rect width="152.377" height="152.377" fill="white" transform="translate(1450.3 1610) rotate(29.615)"/>
</clipPath>
<clipPath id="clip17_80_116">
<rect width="78.6706" height="85.7216" fill="white" transform="matrix(0.988964 -0.148156 0.124374 0.992235 1568 1671.18)"/>
</clipPath>
<clipPath id="clip18_80_116">
<rect width="81" height="81" fill="white" transform="translate(1659.54 1895.23) rotate(135.962)"/>
</clipPath>
<clipPath id="clip19_80_116">
<rect width="101" height="101" fill="white" transform="translate(1712.28 1475.43) rotate(-101.007)"/>
</clipPath>
<clipPath id="clip20_80_116">
<rect width="37" height="37" fill="white" transform="translate(1715 1581.97) rotate(-22.1804)"/>
</clipPath>
</defs>
</svg>
