<svg width="375" height="6735" viewBox="0 0 375 6735" fill="none" xmlns="http://www.w3.org/2000/svg">
<path d="M4.99995 -144C-3.66873 -0.789307 -1.13451 41.589 44.5 215C72 319.5 176 463 185 591C193.336 709.554 50.5 735 19 843.5C-21.9825 984.662 126 1027 245.5 1135C349.038 1228.57 389.5 1341 329 1475C268.5 1609 66.2 1644.85 21 1812.5C-34 2016.5 309 2390.5 347 2539C426.448 2849.47 25 2877.5 17.5 3127C10.8793 3347.25 230.998 3377.13 300.5 3449.5C361 3512.5 375.178 3631.21 323.5 3727.5C254 3857 33.6514 3994.49 22.5 4160.5C-6.40666 4590.84 315.542 4788.96 351 4971C407 5258.5 13.4188 5336.44 19 5588C23.0929 5772.48 150.815 6017.81 190.12 6211.98L384 6758.5" stroke="url(#paint0_radial_224_451)" stroke-width="2"/>
<path d="M126.976 6468.21C123.041 6419.3 112.033 6223.65 434.868 6236.67C481.769 6244.24 537.819 6279.87 546.436 6336.56C557.208 6407.42 534.757 6487.84 525.913 6527.3C517.068 6566.75 442.425 6719.43 360.868 6756.11C279.312 6792.79 261.686 6793.53 192.964 6737.65C124.242 6681.77 130.911 6517.12 126.976 6468.21Z" fill="url(#paint1_linear_224_451)"/>
<path d="M-167.755 4516.78C-179.693 4374.53 -234.778 4263.04 -17.6399 4240.63C49.687 4241.98 124.535 4307.33 127.51 4366.67C131.229 4440.84 128.864 4483.15 121 4525C113.136 4566.85 91.7987 4650.39 35.404 4692.01C-20.9906 4733.63 -102.764 4793.78 -146.008 4737.51C-189.252 4681.25 -155.139 4667.1 -167.755 4516.78Z" fill="url(#paint2_linear_224_451)"/>
<path d="M541.233 1861.33C546.319 1950.66 480.346 2090.25 273.202 2021.6C244.437 2007.41 216.275 1970.67 223.919 1926.93C233.475 1872.26 266.896 1816.55 281.88 1788.82C296.864 1761.09 360.735 1680.79 422.411 1668.4C484.087 1656.02 520.756 1663.49 537.191 1724.88C553.32 1785.12 536.876 1784.81 541.233 1861.33Z" fill="url(#paint3_linear_224_451)"/>
<path d="M-165 546.823C-185.022 508.653 -262.17 354.487 -57.1299 263.412C-25.3005 254.758 22.2915 265.831 48.0141 308.794C80.1673 362.498 95.137 434.354 103.828 468.926C112.52 503.497 121.066 649.987 83.6334 705.2C46.2009 760.413 35.5286 766.555 -27.2071 743.151C-89.9429 719.746 -144.979 584.994 -165 546.823Z" fill="url(#paint4_linear_224_451)"/>
<path d="M-19.5439 251.624C13.6191 259.259 43.542 276.063 61.2046 312.939" stroke="#E7D6B7"/>
<path d="M68.8889 329.21C90.7282 379.326 105.403 435.611 110.01 457.489" stroke="#CDB991"/>
<path d="M112.121 469.704C120.045 523.769 117.413 516.987 118.489 539.578" stroke="#E2CDA4"/>
<defs>
<radialGradient id="paint0_radial_224_451" cx="0" cy="0" r="1" gradientUnits="userSpaceOnUse" gradientTransform="translate(211.377 -132.203) rotate(90) scale(5977.82 299.664)">
<stop stop-color="#CDB991"/>
<stop offset="1" stop-color="#E7D6B7"/>
</radialGradient>
<linearGradient id="paint1_linear_224_451" x1="357.401" y1="6228.34" x2="309.274" y2="6675.6" gradientUnits="userSpaceOnUse">
<stop stop-color="#EBE6FF"/>
<stop offset="1" stop-color="#E7D6B7"/>
</linearGradient>
<linearGradient id="paint2_linear_224_451" x1="14.0937" y1="4261.24" x2="-40.1527" y2="4733.68" gradientUnits="userSpaceOnUse">
<stop stop-color="#F7E6C6"/>
<stop offset="1" stop-color="#D6CDF9"/>
</linearGradient>
<linearGradient id="paint3_linear_224_451" x1="321.689" y1="2041.95" x2="457.603" y2="1718.09" gradientUnits="userSpaceOnUse">
<stop stop-color="#EBE6FF"/>
<stop offset="1" stop-color="#E7D6B7"/>
</linearGradient>
<linearGradient id="paint4_linear_224_451" x1="-108.204" y1="281.067" x2="21.7138" y2="656.9" gradientUnits="userSpaceOnUse">
<stop stop-color="#EBE6FF"/>
<stop offset="1" stop-color="#E7D6B7"/>
</linearGradient>
</defs>
</svg>
