<svg width="84" height="88" viewBox="0 0 84 88" fill="none" xmlns="http://www.w3.org/2000/svg">
<path d="M29.48 30.2829C34.5514 26.4223 55.1617 11.474 75.9173 46.0894C78.3123 51.519 78.2716 59.8825 72.6725 64.7804C65.6736 70.9028 55.3487 74.2316 50.4321 76.0913C45.5156 77.9511 38.6579 78.8758 29.0492 72.9503C19.4404 67.0248 16.3403 61.7937 17.7225 50.6789C19.1046 39.5642 24.4086 34.1436 29.48 30.2829Z" fill="url(#paint0_linear_754_215)"/>
<path d="M12.4293 30.201C14.4917 24.1702 23.2862 0.276858 59.8022 17.4701C64.815 20.6462 69.4386 27.6156 67.5155 34.8018C65.1117 43.7845 58.3896 52.2991 55.3415 56.5816C52.2935 60.8642 47.1125 65.4511 35.8317 65.8803C24.551 66.3094 19.063 63.6908 14.0215 53.6893C8.97997 43.6877 10.3669 36.2318 12.4293 30.201Z" fill="url(#paint1_linear_754_215)"/>
<defs>
<linearGradient id="paint0_linear_754_215" x1="71.506" y1="37.4156" x2="19.3537" y2="63.9391" gradientUnits="userSpaceOnUse">
<stop stop-color="#E7D6B7"/>
<stop offset="1" stop-color="#D6CDF9"/>
</linearGradient>
<linearGradient id="paint1_linear_754_215" x1="51.308" y1="12.7222" x2="22.7606" y2="63.7948" gradientUnits="userSpaceOnUse">
<stop stop-color="#53419A"/>
<stop offset="1" stop-color="#5229F5"/>
</linearGradient>
</defs>
</svg>
