<svg width="40" height="40" viewBox="0 0 40 40" fill="none" xmlns="http://www.w3.org/2000/svg">
<path d="M29 4C28.7348 4 28.4804 4.10536 28.2929 4.29289C28.1053 4.48043 28 4.73478 28 5C28 5.26522 28.1053 5.51957 28.2929 5.70711C28.4804 5.89464 28.7348 6 29 6H32.586L23 15.586L17.708 10.292C17.6151 10.1989 17.5047 10.125 17.3832 10.0746C17.2618 10.0242 17.1315 9.99821 17 9.99821C16.8684 9.99821 16.7382 10.0242 16.6167 10.0746C16.4952 10.125 16.3849 10.1989 16.292 10.292L6.29198 20.292C6.10421 20.4798 5.99872 20.7344 5.99872 21C5.99872 21.2656 6.10421 21.5202 6.29198 21.708C6.47975 21.8958 6.73443 22.0013 6.99998 22.0013C7.26553 22.0013 7.52021 21.8958 7.70798 21.708L17 12.414L22.292 17.708C22.3849 17.8011 22.4952 17.875 22.6167 17.9254C22.7382 17.9758 22.8684 18.0018 23 18.0018C23.1315 18.0018 23.2618 17.9758 23.3832 17.9254C23.5047 17.875 23.6151 17.8011 23.708 17.708L34 7.414V11C34 11.2652 34.1053 11.5196 34.2929 11.7071C34.4804 11.8946 34.7348 12 35 12C35.2652 12 35.5195 11.8946 35.7071 11.7071C35.8946 11.5196 36 11.2652 36 11V5C36 4.73478 35.8946 4.48043 35.7071 4.29289C35.5195 4.10536 35.2652 4 35 4H29ZM31 18C30.7348 18 30.4804 18.1054 30.2929 18.2929C30.1053 18.4804 30 18.7348 30 19V35C30 35.2652 30.1053 35.5196 30.2929 35.7071C30.4804 35.8946 30.7348 36 31 36C31.2652 36 31.5195 35.8946 31.7071 35.7071C31.8946 35.5196 32 35.2652 32 35V19C32 18.7348 31.8946 18.4804 31.7071 18.2929C31.5195 18.1054 31.2652 18 31 18ZM15 22C14.7348 22 14.4804 22.1054 14.2929 22.2929C14.1053 22.4804 14 22.7348 14 23V35C14 35.2652 14.1053 35.5196 14.2929 35.7071C14.4804 35.8946 14.7348 36 15 36C15.2652 36 15.5196 35.8946 15.7071 35.7071C15.8946 35.5196 16 35.2652 16 35V23C16 22.7348 15.8946 22.4804 15.7071 22.2929C15.5196 22.1054 15.2652 22 15 22ZM22 27C22 26.7348 22.1053 26.4804 22.2929 26.2929C22.4804 26.1054 22.7348 26 23 26C23.2652 26 23.5196 26.1054 23.7071 26.2929C23.8946 26.4804 24 26.7348 24 27V35C24 35.2652 23.8946 35.5196 23.7071 35.7071C23.5196 35.8946 23.2652 36 23 36C22.7348 36 22.4804 35.8946 22.2929 35.7071C22.1053 35.5196 22 35.2652 22 35V27ZM5.99998 29C5.99998 28.7348 6.10534 28.4804 6.29287 28.2929C6.48041 28.1054 6.73476 28 6.99998 28C7.2652 28 7.51955 28.1054 7.70709 28.2929C7.89462 28.4804 7.99998 28.7348 7.99998 29V35C7.99998 35.2652 7.89462 35.5196 7.70709 35.7071C7.51955 35.8946 7.2652 36 6.99998 36C6.73476 36 6.48041 35.8946 6.29287 35.7071C6.10534 35.5196 5.99998 35.2652 5.99998 35V29Z" fill="#53419A"/>
</svg>
