<svg width="31" height="30" viewBox="0 0 31 30" fill="none" xmlns="http://www.w3.org/2000/svg">
<path d="M15.1675 8.12488C13.8077 8.12488 12.4785 8.52809 11.3479 9.28352C10.2173 10.039 9.33616 11.1127 8.81581 12.3689C8.29546 13.6252 8.15931 15.0075 8.42458 16.3411C8.68986 17.6747 9.34464 18.8998 10.3061 19.8612C11.2676 20.8227 12.4926 21.4775 13.8262 21.7428C15.1599 22.0081 16.5422 21.8719 17.7984 21.3515C19.0547 20.8312 20.1284 19.95 20.8838 18.8194C21.6393 17.6888 22.0425 16.3596 22.0425 14.9999C22.0404 13.1771 21.3154 11.4297 20.0266 10.1408C18.7377 8.85194 16.9902 8.12695 15.1675 8.12488ZM15.1675 20.6249C14.055 20.6249 12.9674 20.295 12.0424 19.6769C11.1174 19.0588 10.3964 18.1803 9.97066 17.1525C9.54491 16.1246 9.43352 14.9936 9.65056 13.9025C9.8676 12.8114 10.4033 11.8091 11.19 11.0224C11.9767 10.2357 12.979 9.7 14.0701 9.48296C15.1612 9.26592 16.2922 9.37731 17.3201 9.80305C18.3479 10.2288 19.2264 10.9498 19.8445 11.8748C20.4626 12.7998 20.7925 13.8874 20.7925 14.9999C20.7908 16.4912 20.1977 17.921 19.1431 18.9755C18.0886 20.0301 16.6588 20.6232 15.1675 20.6249ZM22.0425 -0.00012207H8.29248C6.13835 0.00231789 4.07314 0.859126 2.54993 2.38233C1.02673 3.90553 0.16992 5.97074 0.16748 8.12488V21.8749C0.16992 24.029 1.02673 26.0942 2.54993 27.6174C4.07314 29.1406 6.13835 29.9974 8.29248 29.9999H22.0425C24.1966 29.9974 26.2618 29.1406 27.785 27.6174C29.3082 26.0942 30.165 24.029 30.1675 21.8749V8.12488C30.165 5.97074 29.3082 3.90553 27.785 2.38233C26.2618 0.859126 24.1966 0.00231789 22.0425 -0.00012207ZM28.9175 21.8749C28.9154 23.6976 28.1904 25.4451 26.9016 26.734C25.6127 28.0228 23.8652 28.7478 22.0425 28.7499H8.29248C6.46975 28.7478 4.72227 28.0228 3.4334 26.734C2.14454 25.4451 1.41955 23.6976 1.41748 21.8749V8.12488C1.41955 6.30215 2.14454 4.55467 3.4334 3.2658C4.72227 1.97694 6.46975 1.25195 8.29248 1.24988H22.0425C23.8652 1.25195 25.6127 1.97694 26.9016 3.2658C28.1904 4.55467 28.9154 6.30215 28.9175 8.12488V21.8749ZM24.5425 6.87488C24.5425 7.1221 24.4692 7.36378 24.3318 7.56934C24.1945 7.7749 23.9992 7.93512 23.7708 8.02973C23.5424 8.12434 23.2911 8.14909 23.0486 8.10086C22.8061 8.05263 22.5834 7.93358 22.4086 7.75876C22.2338 7.58395 22.1147 7.36122 22.0665 7.11874C22.0183 6.87626 22.043 6.62493 22.1376 6.39652C22.2322 6.16812 22.3925 5.97289 22.598 5.83554C22.8036 5.69819 23.0453 5.62488 23.2925 5.62488C23.6239 5.62529 23.9416 5.75712 24.1759 5.99145C24.4102 6.22578 24.5421 6.54348 24.5425 6.87488Z" fill="url(#paint0_linear_36_33)"/>
<defs>
<linearGradient id="paint0_linear_36_33" x1="15.1675" y1="-0.00012207" x2="15.1675" y2="29.9999" gradientUnits="userSpaceOnUse">
<stop stop-color="#53419A"/>
<stop offset="1" stop-color="#5229F5"/>
</linearGradient>
</defs>
</svg>
