<svg width="399" height="540" viewBox="0 0 399 540" fill="none" xmlns="http://www.w3.org/2000/svg">
<path d="M311.311 192.242C332.258 239.783 413.342 431.357 224.076 514.659C194.407 521.103 148.789 502.332 122.196 448.441C88.9546 381.077 71.0239 294.287 60.9878 252.353C50.9518 210.419 46.0582 155.613 78.5898 94.7582C111.122 33.9035 139.723 21.5957 200.318 56.761C260.914 91.9264 290.364 144.7 311.311 192.242Z" fill="url(#paint0_linear_837_99)"/>
<path d="M346.111 404.73C323.991 472.373 273.444 497.142 252.485 510.381" stroke="#CDB991"/>
<path d="M233.505 65.8496C280.01 103.111 310.496 151.498 322.494 184.915" stroke="#D6CDF9" stroke-opacity="0.58"/>
<path d="M87.3704 68.25C122.044 3.08767 144.655 8.446 218.245 55.8563" stroke="#53419A" stroke-opacity="0.57"/>
<defs>
<linearGradient id="paint0_linear_837_99" x1="271.484" y1="499.861" x2="127.954" y2="40.0464" gradientUnits="userSpaceOnUse">
<stop stop-color="#53419A"/>
<stop offset="1" stop-color="#5229F5"/>
</linearGradient>
</defs>
</svg>
