<svg width="50" height="51" viewBox="0 0 50 51" fill="none" xmlns="http://www.w3.org/2000/svg">
<path d="M40.5816 26.2128L42.9562 12.8924C42.9767 12.7776 42.9722 12.6596 42.943 12.5467C42.9138 12.4339 42.8607 12.3289 42.7873 12.2393C42.714 12.1497 42.6223 12.0777 42.5186 12.0282C42.415 11.9787 42.3019 11.9531 42.1875 11.9531H10.027L8.95664 5.94748C8.85868 5.39647 8.57411 4.89806 8.15259 4.53926C7.73108 4.18047 7.1994 3.98407 6.65039 3.98438H3.125C2.9178 3.98438 2.71909 4.06833 2.57257 4.21777C2.42606 4.36722 2.34375 4.56991 2.34375 4.78125C2.34375 4.99259 2.42606 5.19528 2.57257 5.34473C2.71909 5.49417 2.9178 5.57812 3.125 5.57812H6.65039C6.83337 5.57802 7.01059 5.64346 7.15109 5.76304C7.29159 5.88261 7.38646 6.04872 7.41914 6.23236L12.8645 36.7798C12.0986 37.3487 11.5197 38.141 11.204 39.0522C10.8884 39.9634 10.8509 40.9508 11.0964 41.8842C11.3419 42.8177 11.859 43.6533 12.5794 44.281C13.2998 44.9087 14.1897 45.299 15.132 45.4005C16.0742 45.502 17.0245 45.31 17.8576 44.8496C18.6906 44.3892 19.3674 43.6822 19.7987 42.8217C20.2299 41.9612 20.3954 40.9876 20.2734 40.0292C20.1514 39.0709 19.7475 38.1727 19.115 37.4531H32.4475C31.7325 38.2689 31.3136 39.3102 31.2609 40.4031C31.2081 41.496 31.5247 42.5743 32.1577 43.4577C32.7907 44.3411 33.7018 44.9762 34.7386 45.2569C35.7755 45.5375 36.8754 45.4467 37.8545 44.9995C38.8337 44.5524 39.6327 43.7761 40.1181 42.8003C40.6035 41.8245 40.7459 40.7083 40.5215 39.6383C40.2971 38.5683 39.7194 37.6093 38.8851 36.9215C38.0507 36.2337 37.0103 35.8587 35.9375 35.8594H14.2883L13.152 29.4844H36.7387C37.6535 29.4847 38.5394 29.1573 39.2418 28.5594C39.9441 27.9615 40.4183 27.131 40.5816 26.2128ZM18.75 40.6406C18.75 41.271 18.5667 41.8873 18.2233 42.4115C17.88 42.9357 17.3919 43.3442 16.8209 43.5855C16.2499 43.8267 15.6215 43.8899 15.0153 43.7669C14.4092 43.6439 13.8523 43.3403 13.4153 42.8945C12.9783 42.4487 12.6806 41.8808 12.56 41.2625C12.4395 40.6442 12.5014 40.0033 12.7379 39.4208C12.9744 38.8384 13.3749 38.3406 13.8888 37.9903C14.4027 37.6401 15.0069 37.4531 15.625 37.4531C16.4535 37.4541 17.2478 37.7902 17.8337 38.3878C18.4195 38.9853 18.7491 39.7955 18.75 40.6406ZM39.0625 40.6406C39.0625 41.271 38.8792 41.8873 38.5358 42.4115C38.1925 42.9357 37.7044 43.3442 37.1334 43.5855C36.5624 43.8267 35.934 43.8899 35.3278 43.7669C34.7216 43.6439 34.1648 43.3403 33.7278 42.8945C33.2908 42.4487 32.9931 41.8808 32.8725 41.2625C32.752 40.6442 32.8139 40.0033 33.0504 39.4208C33.2869 38.8384 33.6874 38.3406 34.2013 37.9903C34.7152 37.6401 35.3194 37.4531 35.9375 37.4531C36.766 37.4541 37.5603 37.7902 38.1462 38.3878C38.732 38.9853 39.0616 39.7955 39.0625 40.6406ZM10.3111 13.5469H41.2514L39.0443 25.9277C38.9464 26.4786 38.6619 26.9769 38.2405 27.3357C37.8191 27.6944 37.2876 27.8908 36.7387 27.8906H12.868L10.3111 13.5469Z" fill="#53419A"/>
</svg>
