<svg width="60" height="60" viewBox="0 0 60 60" fill="none" xmlns="http://www.w3.org/2000/svg">
<path d="M30 7.5C28.8857 6.6643 27.5608 6.15539 26.1735 6.03031C24.7863 5.90522 23.3917 6.1689 22.1459 6.7918C20.9001 7.4147 19.8524 8.3722 19.1201 9.55702C18.3879 10.7418 18 12.1072 18 13.5V18H15C14.2044 18 13.4413 18.3161 12.8787 18.8787C12.3161 19.4413 12 20.2044 12 21V45C12 47.387 12.9482 49.6761 14.636 51.364C16.3239 53.0518 18.6131 54 21 54H40.5C42.4891 54 44.3968 53.2098 45.8033 51.8033C47.2098 50.3968 48 48.4891 48 46.5V21C48 20.2044 47.6839 19.4413 47.1213 18.8787C46.5587 18.3161 45.7956 18 45 18H42V13.5C42 12.1072 41.6121 10.7418 40.8799 9.55702C40.1476 8.3722 39.0999 7.4147 37.8541 6.7918C36.6083 6.1689 35.2137 5.90522 33.8265 6.03031C32.4392 6.15539 31.1143 6.6643 30 7.5ZM21 13.5C21 12.3065 21.4741 11.1619 22.318 10.318C23.1619 9.47411 24.3065 9 25.5 9C26.6935 9 27.8381 9.47411 28.682 10.318C29.5259 11.1619 30 12.3065 30 13.5V18H21V13.5ZM32.001 9.756C32.6787 9.30345 33.4666 9.04342 34.2806 9.00368C35.0945 8.96394 35.904 9.14599 36.6226 9.53038C37.3412 9.91477 37.9419 10.4871 38.3606 11.1862C38.7793 11.8854 39.0003 12.6851 39 13.5V18H33V13.5C33 12.138 32.637 10.86 32.001 9.756ZM21 51C19.4087 51 17.8826 50.3679 16.7574 49.2426C15.6321 48.1174 15 46.5913 15 45V21H33V46.5C33 48.189 33.558 49.746 34.5 51H21ZM45 46.5C45 47.6935 44.5259 48.8381 43.682 49.682C42.8381 50.5259 41.6935 51 40.5 51C39.3065 51 38.1619 50.5259 37.318 49.682C36.4741 48.8381 36 47.6935 36 46.5V21H45V46.5Z" fill="#53419A"/>
</svg>
