<svg width="32" height="32" viewBox="0 0 32 32" fill="none" xmlns="http://www.w3.org/2000/svg">
<path d="M16.1674 0.374878C13.4319 0.375596 10.7445 1.09428 8.37382 2.45909C6.0031 3.8239 4.03212 5.78704 2.65787 8.15229C1.28362 10.5175 0.554241 13.2021 0.542621 15.9376C0.531002 18.673 1.23755 21.3637 2.59166 23.7405L1.18463 28.6649C1.0928 28.9864 1.08862 29.3266 1.17251 29.6503C1.2564 29.9739 1.42531 30.2693 1.66175 30.5057C1.89819 30.7421 2.19355 30.911 2.51722 30.9949C2.84089 31.0787 3.1811 31.0745 3.5026 30.9827L8.42713 29.5758C10.5062 30.7612 12.8297 31.4531 15.2186 31.5983C17.6074 31.7435 19.9976 31.338 22.205 30.4132C24.4123 29.4884 26.3777 28.0689 27.9496 26.2643C29.5214 24.4596 30.6578 22.3181 31.271 20.0047C31.8842 17.6914 31.9578 15.2681 31.4862 12.9218C31.0147 10.5755 30.0104 8.36888 28.551 6.47212C27.0916 4.57536 25.2161 3.03916 23.069 1.98201C20.9219 0.924865 18.5607 0.375017 16.1674 0.374878ZM16.1674 30.3749C13.5857 30.3766 11.0513 29.6821 8.83119 28.3644C8.75799 28.3208 8.67665 28.2927 8.59216 28.2817C8.50768 28.2708 8.42184 28.2772 8.33994 28.3007L3.15916 29.7808C3.052 29.8114 2.93861 29.8128 2.83074 29.7848C2.72286 29.7568 2.62443 29.7005 2.54564 29.6217C2.46685 29.5429 2.41056 29.4445 2.38261 29.3366C2.35465 29.2287 2.35605 29.1153 2.38666 29.0082L3.86666 23.8275C3.89007 23.7456 3.89648 23.6598 3.88552 23.5753C3.87456 23.4908 3.84645 23.4095 3.80291 23.3363C2.18382 20.6085 1.51236 17.4218 1.89314 14.2726C2.27391 11.1234 3.68554 8.18856 5.90812 5.92525C8.1307 3.66195 11.0394 2.19728 14.1812 1.75939C17.3229 1.3215 20.5213 1.93499 23.2781 3.50429C26.0348 5.07359 28.1951 7.51058 29.4225 10.4356C30.6499 13.3607 30.8754 16.6095 30.0639 19.6761C29.2524 22.7427 27.4495 25.4548 24.936 27.3899C22.4225 29.325 19.3396 30.3745 16.1674 30.3749ZM24.0599 18.8972L20.8631 17.0705C20.5738 16.9054 20.2459 16.8203 19.9129 16.8238C19.5799 16.8274 19.2539 16.9195 18.9682 17.0907L16.8109 18.385C15.5049 17.7233 14.4441 16.6624 13.7824 15.3564L15.0768 13.1991C15.248 12.9134 15.34 12.5874 15.3436 12.2544C15.3471 11.9214 15.2619 11.5935 15.0968 11.3043L13.2703 8.10738C13.1211 7.84712 12.9059 7.6308 12.6465 7.48024C12.387 7.32969 12.0924 7.25023 11.7924 7.24988C10.4697 7.2502 9.20096 7.77451 8.26389 8.70807C7.32681 9.64163 6.79773 10.9084 6.79244 12.2311C6.79 13.9563 7.12768 15.665 7.78616 17.2595C8.44465 18.8541 9.41103 20.3032 10.63 21.5239C11.849 22.7447 13.2967 23.7131 14.8903 24.3739C16.4839 25.0347 18.1921 25.3748 19.9173 25.3749H19.936C21.2588 25.3696 22.5256 24.8406 23.4592 23.9035C24.3928 22.9664 24.9171 21.6976 24.9174 20.3749C24.9171 20.0749 24.8377 19.7804 24.6871 19.5209C24.5365 19.2615 24.3202 19.0463 24.0599 18.8972ZM19.9343 24.1249H19.9174C18.3566 24.1249 16.811 23.8172 15.3692 23.2193C13.9274 22.6215 12.6175 21.7453 11.5146 20.6409C10.4117 19.5364 9.53736 18.2253 8.94157 16.7827C8.34578 15.34 8.04025 13.794 8.04244 12.2332C8.04674 11.2415 8.44374 10.2919 9.14655 9.59217C9.84936 8.8925 10.8007 8.49974 11.7924 8.49988C11.8721 8.49997 11.9503 8.52107 12.0192 8.56104C12.0881 8.60101 12.1453 8.65843 12.1849 8.72753L14.0115 11.9246C14.0665 12.021 14.0949 12.1302 14.0938 12.2412C14.0926 12.3522 14.062 12.4609 14.0049 12.5561L12.5378 15.0011C12.4859 15.0876 12.4557 15.1853 12.4497 15.2859C12.4438 15.3866 12.4623 15.4872 12.5037 15.5791C13.3195 17.3946 14.7728 18.8479 16.5884 19.6636C16.6803 19.705 16.7809 19.7235 16.8815 19.7176C16.9822 19.7117 17.0799 19.6815 17.1663 19.6296L19.6112 18.1624C19.7064 18.1053 19.8151 18.0747 19.9261 18.0735C20.0372 18.0723 20.1465 18.1007 20.2429 18.1557L23.4398 19.9825C23.5089 20.0221 23.5663 20.0792 23.6063 20.1481C23.6463 20.217 23.6674 20.2952 23.6674 20.3749C23.6676 21.3666 23.2748 22.3179 22.5752 23.0207C21.8756 23.7235 20.926 24.1205 19.9343 24.1249Z" fill="url(#paint0_linear_37_45)"/>
<defs>
<linearGradient id="paint0_linear_37_45" x1="16.1676" y1="0.374878" x2="16.1676" y2="31.6271" gradientUnits="userSpaceOnUse">
<stop stop-color="#53419A"/>
<stop offset="1" stop-color="#5229F5"/>
</linearGradient>
</defs>
</svg>
